<?xml version="1.0" encoding="utf-8"?>
<!-- Generator: Adobe Illustrator 27.5.0, SVG Export Plug-In . SVG Version: 6.00 Build 0)  -->
<svg version="1.1" xmlns="http://www.w3.org/2000/svg" xmlns:xlink="http://www.w3.org/1999/xlink" x="0px" y="0px"
	 viewBox="0 0 500 500" style="enable-background:new 0 0 500 500;" xml:space="preserve">
<g id="Background_Complete">
	<g>
		<rect y="382.398" style="fill:#EBEBEB;" width="500" height="0.25"/>
		<rect x="416.779" y="398.494" style="fill:#EBEBEB;" width="33.122" height="0.25"/>
		<rect x="322.527" y="401.208" style="fill:#EBEBEB;" width="8.693" height="0.25"/>
		<rect x="396.586" y="389.208" style="fill:#EBEBEB;" width="19.192" height="0.25"/>
		<rect x="52.459" y="390.888" style="fill:#EBEBEB;" width="43.193" height="0.25"/>
		<rect x="104.556" y="390.888" style="fill:#EBEBEB;" width="6.333" height="0.25"/>
		<rect x="131.471" y="395.111" style="fill:#EBEBEB;" width="93.676" height="0.25"/>
		<path style="fill:#EBEBEB;" d="M237.014,337.8H43.915c-3.147,0-5.708-2.561-5.708-5.708V60.66c0-3.147,2.561-5.708,5.708-5.708
			h193.099c3.146,0,5.707,2.561,5.707,5.708v271.432C242.721,335.239,240.16,337.8,237.014,337.8z M43.915,55.203
			c-3.01,0-5.458,2.448-5.458,5.458v271.432c0,3.01,2.448,5.458,5.458,5.458h193.099c3.009,0,5.457-2.448,5.457-5.458V60.66
			c0-3.009-2.448-5.458-5.457-5.458H43.915z"/>
		<path style="fill:#EBEBEB;" d="M453.31,337.8H260.212c-3.147,0-5.707-2.561-5.707-5.708V60.66c0-3.147,2.561-5.708,5.707-5.708
			H453.31c3.148,0,5.708,2.561,5.708,5.708v271.432C459.019,335.239,456.458,337.8,453.31,337.8z M260.212,55.203
			c-3.009,0-5.457,2.448-5.457,5.458v271.432c0,3.01,2.448,5.458,5.457,5.458H453.31c3.01,0,5.458-2.448,5.458-5.458V60.66
			c0-3.009-2.448-5.458-5.458-5.458H260.212z"/>
	</g>
	<g>
		<g>
			<rect x="271.185" y="121.791" style="fill:#E6E6E6;" width="150.752" height="133.77"/>
			<rect x="274.96" y="125.458" style="fill:#F0F0F0;" width="143.009" height="126.508"/>
			<polygon style="fill:#FFFFFF;" points="308.523,125.458 274.96,251.691 274.96,192.374 292.681,125.458 			"/>
			<polygon style="fill:#FFFFFF;" points="320.41,125.458 286.553,251.966 281.149,251.966 315.006,125.458 			"/>
			<polygon style="fill:#FFFFFF;" points="417.97,205.285 417.97,225.501 411.119,251.966 405.715,251.966 			"/>
			<rect x="322.43" y="123.184" style="fill:#E6E6E6;" width="2.409" height="131.608"/>
			<rect x="369.116" y="123.184" style="fill:#E6E6E6;" width="2.409" height="131.608"/>
		</g>
		<g>
			<rect x="78.063" y="167.82" style="fill:#E6E6E6;" width="160.566" height="47.184"/>
			<rect x="96.538" y="167.82" style="fill:#EBEBEB;" width="142.091" height="47.184"/>
			
				<rect x="146.991" y="123.366" transform="matrix(-1.836970e-16 1 -1 -1.836970e-16 358.9956 23.8286)" style="fill:#E0E0E0;" width="41.184" height="136.091"/>
			<rect x="124.512" y="170.82" style="fill:#EBEBEB;" width="2.374" height="41.184"/>
			
				<rect x="144.525" y="179.826" transform="matrix(-1.836970e-16 1 -1 -1.836970e-16 346.1291 54.7064)" style="fill:#EBEBEB;" width="2.374" height="41.184"/>
			
				<rect x="187.13" y="163.086" transform="matrix(-1.836970e-16 1 -1 -1.836970e-16 371.9958 -4.6389)" style="fill:#EBEBEB;" width="2.374" height="41.184"/>
			<rect x="166.538" y="170.82" style="fill:#EBEBEB;" width="2.374" height="41.184"/>
			<rect x="209.566" y="170.82" style="fill:#EBEBEB;" width="2.374" height="41.184"/>
		</g>
		<g>
			
				<ellipse transform="matrix(0.9732 -0.2298 0.2298 0.9732 -27.762 37.7761)" style="fill:#E0E0E0;" cx="148.34" cy="138.106" rx="15.481" ry="15.481"/>
			
				<ellipse transform="matrix(0.9871 -0.1602 0.1602 0.9871 -20.2066 25.5447)" style="fill:#F0F0F0;" cx="148.34" cy="138.106" rx="13.163" ry="13.162"/>
			<polyline style="fill:#F0F0F0;stroke:#E0E0E0;stroke-linecap:round;stroke-linejoin:round;stroke-miterlimit:10;" points="
				147.719,147.135 147.719,137.934 141.621,141.384 			"/>
		</g>
	</g>
</g>
<g id="Background_Simple" style="display:none;">
	<g style="display:inline;">
		<path style="fill:#407BFF;" d="M84.543,115.634c27.919-59.449,127.059-51.062,165.317-9.255
			c38.258,41.806,50.696,68.599,85.208,52.983c34.512-15.616,78.518-11.44,81.043,38.164s-37.913,108.263-102.09,125.615
			c-64.177,17.352-64.161,78.759-149.1,66.368c-46.31-6.756-47.365-56.86-40.825-98.301S52.165,184.577,84.543,115.634z"/>
		<path style="opacity:0.9;fill:#FFFFFF;" d="M84.543,115.634c27.919-59.449,127.059-51.062,165.317-9.255
			c38.258,41.806,50.696,68.599,85.208,52.983c34.512-15.616,78.518-11.44,81.043,38.164s-37.913,108.263-102.09,125.615
			c-64.177,17.352-64.161,78.759-149.1,66.368c-46.31-6.756-47.365-56.86-40.825-98.301S52.165,184.577,84.543,115.634z"/>
	</g>
</g>
<g id="Shadow_1_">
	<ellipse id="_x3C_Path_x3E__359_" style="fill:#F5F5F5;" cx="250" cy="416.238" rx="193.889" ry="11.323"/>
</g>
<g id="Drawer">
	<g>
		<g>
			<path style="fill:#407BFF;" d="M278.936,235.987v-3.264h-5.736v3.264c0,1.873-1.004,3.602-2.631,4.53v0
				c-1.627,0.928-2.631,2.657-2.631,4.53v30.505c0,1.905,1.544,3.449,3.449,3.449h9.363c1.905,0,3.449-1.544,3.449-3.449v-30.505
				c0-1.873-1.004-3.602-2.631-4.53v0C279.941,239.59,278.936,237.86,278.936,235.987z"/>
			<path style="opacity:0.7;fill:#FFFFFF;" d="M278.936,235.987v-3.264h-5.736v3.264c0,1.873-1.004,3.602-2.631,4.53v0
				c-1.627,0.928-2.631,2.657-2.631,4.53v30.505c0,1.905,1.544,3.449,3.449,3.449h9.363c1.905,0,3.449-1.544,3.449-3.449v-30.505
				c0-1.873-1.004-3.602-2.631-4.53v0C279.941,239.59,278.936,237.86,278.936,235.987z"/>
			<rect x="272.973" y="230.671" style="fill:#407BFF;" width="6.192" height="3.87"/>
			<rect x="267.938" y="254.284" style="opacity:0.2;fill:#FFFFFF;" width="16.261" height="4.437"/>
			<rect x="267.938" y="259.473" style="opacity:0.2;fill:#FFFFFF;" width="16.261" height="4.437"/>
			<rect x="267.938" y="264.663" style="opacity:0.2;fill:#FFFFFF;" width="16.261" height="4.437"/>
		</g>
		<g>
			<polygon style="fill:#407BFF;" points="300.943,279.002 291.184,279.002 289.997,263.91 302.129,263.91 			"/>
			<polygon style="opacity:0.7;fill:#FFFFFF;" points="302.129,263.908 301.789,268.248 300.938,278.998 291.188,278.998 
				290.339,268.248 289.998,263.908 			"/>
			<polygon style="opacity:0.2;fill:#FFFFFF;" points="301.789,268.248 300.938,278.998 291.188,278.998 290.339,268.248 			"/>
			<polygon style="fill:#407BFF;" points="303.036,264.663 289.091,264.663 290.092,262.789 302.035,262.789 			"/>
		</g>
		<g>
			<path style="fill:#263238;" d="M342.207,268.252h-2.001h-28.59h-2.001c-1.288,0-2.332,1.044-2.332,2.332v146.425h2.001h1.953
				h2.001v-10.41h25.346v10.41h2.001h1.953h2.001V270.584C344.538,269.296,343.494,268.252,342.207,268.252z"/>
			<path style="opacity:0.7;fill:#FFFFFF;" d="M342.207,268.252h-2.001h-28.59h-2.001c-1.288,0-2.332,1.044-2.332,2.332v146.425
				h2.001h1.953h2.001v-10.41h25.346v10.41h2.001h1.953h2.001V270.584C344.538,269.296,343.494,268.252,342.207,268.252z"/>
			<path style="opacity:0.4;fill:#FFFFFF;" d="M340.205,268.252h-30.591c-1.288,0-2.332,1.044-2.332,2.332v146.425h3.954v-10.41
				h27.347v10.41h3.954V270.584C342.537,269.296,341.493,268.252,340.205,268.252z"/>
		</g>
		<rect x="248.308" y="279.002" style="fill:#263238;" width="90.679" height="127.345"/>
		<rect x="248.308" y="279.002" style="opacity:0.75;fill:#FFFFFF;" width="90.679" height="127.345"/>
		<g>
			<path style="fill:#263238;" d="M280.168,268.252h-2.001h-28.59h-2.001c-1.288,0-2.332,1.044-2.332,2.332v146.425h2.001h1.953
				h2.001v-10.41h25.345v10.41h2.001h1.953h2.001V270.584C282.499,269.296,281.455,268.252,280.168,268.252z"/>
			<path style="opacity:0.7;fill:#FFFFFF;" d="M280.168,268.252h-2.001h-28.59h-2.001c-1.288,0-2.332,1.044-2.332,2.332v146.425
				h2.001h1.953h2.001v-10.41h25.345v10.41h2.001h1.953h2.001V270.584C282.499,269.296,281.455,268.252,280.168,268.252z"/>
			<path style="opacity:0.4;fill:#FFFFFF;" d="M278.166,268.252h-30.591c-1.288,0-2.332,1.044-2.332,2.332v146.425h3.954v-10.41
				h27.347v10.41h3.954V270.584C280.498,269.296,279.454,268.252,278.166,268.252z"/>
		</g>
		<rect x="283.977" y="282.767" style="opacity:0.2;fill:#FFFFFF;" width="50.79" height="15.514"/>
		<rect x="283.977" y="301.756" style="opacity:0.2;fill:#FFFFFF;" width="50.79" height="100.156"/>
	</g>
</g>
<g id="Bed">
	<g>
		<g>
			<g>
				<g>
					<path style="fill:#263238;" d="M261.75,370.147c-0.758-0.229-1.215-0.62-1.215-1.039v-25.032
						c-0.005-0.093,0.013-0.187,0.056-0.28c0.065-0.145,0.185-0.281,0.349-0.403c0.213-0.159,0.495-0.289,0.82-0.386
						c0.317-0.095,0.68-0.16,1.07-0.187c0.15-0.011,0.304-0.014,0.456-0.014h124.707c0.152,0.001,0.303,0.003,0.453,0.013
						c0.398,0.027,0.768,0.094,1.09,0.192c0.318,0.096,0.593,0.224,0.802,0.38c0.165,0.122,0.285,0.258,0.351,0.404
						c0.042,0.093,0.06,0.187,0.056,0.28v25.032c0,0.419-0.457,0.809-1.215,1.039c-0.759,0.229-1.716,0.266-2.548,0.1
						l-61.342-12.314l-61.342,12.314c-0.344,0.069-0.709,0.103-1.073,0.103C262.708,370.35,262.194,370.281,261.75,370.147z
						 M265.914,345.944v21.271l52.981-10.635L265.914,345.944z M332.384,356.579l52.981,10.635v-21.271L332.384,356.579z
						 M276.153,345.291l49.486,9.934l49.486-9.934H276.153z"/>
				</g>
				<g style="opacity:0.3;">
					<path style="fill:#FFFFFF;" d="M261.75,370.147c-0.758-0.229-1.215-0.62-1.215-1.039v-25.032
						c-0.005-0.093,0.013-0.187,0.056-0.28c0.065-0.145,0.185-0.281,0.349-0.403c0.213-0.159,0.495-0.289,0.82-0.386
						c0.317-0.095,0.68-0.16,1.07-0.187c0.15-0.011,0.304-0.014,0.456-0.014h124.707c0.152,0.001,0.303,0.003,0.453,0.013
						c0.398,0.027,0.768,0.094,1.09,0.192c0.318,0.096,0.593,0.224,0.802,0.38c0.165,0.122,0.285,0.258,0.351,0.404
						c0.042,0.093,0.06,0.187,0.056,0.28v25.032c0,0.419-0.457,0.809-1.215,1.039c-0.759,0.229-1.716,0.266-2.548,0.1
						l-61.342-12.314l-61.342,12.314c-0.344,0.069-0.709,0.103-1.073,0.103C262.708,370.35,262.194,370.281,261.75,370.147z
						 M265.914,345.944v21.271l52.981-10.635L265.914,345.944z M332.384,356.579l52.981,10.635v-21.271L332.384,356.579z
						 M276.153,345.291l49.486,9.934l49.486-9.934H276.153z"/>
				</g>
			</g>
			<g>
				<g>
					<path style="fill:#263238;" d="M245.297,341.375h181.916c1.486,0,2.69,1.204,2.69,2.69l0,0c0,1.486-1.204,2.69-2.69,2.69
						H245.297c-1.486,0-2.69-1.205-2.69-2.69l0,0C242.607,342.579,243.811,341.375,245.297,341.375z"/>
				</g>
				<g style="opacity:0.3;">
					<path style="fill:#FFFFFF;" d="M245.297,341.375h181.916c1.486,0,2.69,1.204,2.69,2.69l0,0c0,1.486-1.204,2.69-2.69,2.69
						H245.297c-1.486,0-2.69-1.205-2.69-2.69l0,0C242.607,342.579,243.811,341.375,245.297,341.375z"/>
				</g>
			</g>
			<g>
				<g>
					<path style="fill:#263238;" d="M414.731,390.166c1.527,0,2.784-1.219,2.821-2.754l0.485-19.683
						c0.019-0.761-0.27-1.497-0.802-2.041c-0.532-0.545-1.26-0.852-2.021-0.852h-151.99c-0.995,0-1.916,0.524-2.426,1.379
						l-10.887,18.276c-0.798,1.339-0.359,3.073,0.981,3.87c1.34,0.8,3.073,0.358,3.87-0.981l10.066-16.897h147.492l-0.414,16.79
						c-0.039,1.559,1.194,2.854,2.753,2.892C414.684,390.166,414.708,390.166,414.731,390.166z"/>
				</g>
				<g style="opacity:0.3;">
					<path style="fill:#FFFFFF;" d="M414.731,390.166c1.527,0,2.784-1.219,2.821-2.754l0.485-19.683
						c0.019-0.761-0.27-1.497-0.802-2.041c-0.532-0.545-1.26-0.852-2.021-0.852h-151.99c-0.995,0-1.916,0.524-2.426,1.379
						l-10.887,18.276c-0.798,1.339-0.359,3.073,0.981,3.87c1.34,0.8,3.073,0.358,3.87-0.981l10.066-16.897h147.492l-0.414,16.79
						c-0.039,1.559,1.194,2.854,2.753,2.892C414.684,390.166,414.708,390.166,414.731,390.166z"/>
				</g>
			</g>
		</g>
		<g>
			<g>
				<path style="fill:#407BFF;" d="M108.96,245.304v103.27c0,2.908,1.656,5.261,3.688,5.261h118.628
					c2.039,0,3.694-2.353,3.694-5.261v-103.27c0-2.908-1.656-5.261-3.694-5.261H112.648
					C110.616,240.043,108.96,242.396,108.96,245.304z M209.847,251.648c0-2.673,1.518-4.847,3.398-4.847h12.027
					c0.943,0,1.788,0.546,2.401,1.421c0.614,0.875,0.996,2.089,0.996,3.426c0,2.682-1.517,4.847-3.398,4.847h-12.027
					c-0.937,0-1.788-0.536-2.401-1.421C210.223,254.198,209.847,252.984,209.847,251.648z M115.26,251.648
					c0-2.673,1.517-4.847,3.391-4.847h12.034c0.937,0,1.788,0.546,2.401,1.421c0.614,0.875,0.996,2.089,0.996,3.426
					c0,2.682-1.524,4.847-3.398,4.847h-12.034c-0.937,0-1.781-0.536-2.402-1.421C115.643,254.198,115.26,252.984,115.26,251.648z"/>
				<path style="opacity:0.6;fill:#FFFFFF;" d="M108.96,245.304v103.27c0,2.908,1.656,5.261,3.688,5.261h118.628
					c2.039,0,3.694-2.353,3.694-5.261v-103.27c0-2.908-1.656-5.261-3.694-5.261H112.648
					C110.616,240.043,108.96,242.396,108.96,245.304z M209.847,251.648c0-2.673,1.518-4.847,3.398-4.847h12.027
					c0.943,0,1.788,0.546,2.401,1.421c0.614,0.875,0.996,2.089,0.996,3.426c0,2.682-1.517,4.847-3.398,4.847h-12.027
					c-0.937,0-1.788-0.536-2.401-1.421C210.223,254.198,209.847,252.984,209.847,251.648z M115.26,251.648
					c0-2.673,1.517-4.847,3.391-4.847h12.034c0.937,0,1.788,0.546,2.401,1.421c0.614,0.875,0.996,2.089,0.996,3.426
					c0,2.682-1.524,4.847-3.398,4.847h-12.034c-0.937,0-1.781-0.536-2.402-1.421C115.643,254.198,115.26,252.984,115.26,251.648z"/>
			</g>
			<path style="fill:#407BFF;" d="M110.94,245.304v103.27c0,2.908,1.656,5.261,3.688,5.261h118.628c2.039,0,3.694-2.353,3.694-5.261
				v-103.27c0-2.908-1.656-5.261-3.694-5.261H114.628C112.596,240.043,110.94,242.396,110.94,245.304z M211.828,251.648
				c0-2.673,1.517-4.847,3.398-4.847h12.027c0.943,0,1.788,0.546,2.402,1.421c0.613,0.875,0.996,2.089,0.996,3.426
				c0,2.682-1.518,4.847-3.398,4.847h-12.027c-0.937,0-1.788-0.536-2.401-1.421C212.204,254.198,211.828,252.984,211.828,251.648z
				 M117.241,251.648c0-2.673,1.517-4.847,3.391-4.847h12.034c0.937,0,1.788,0.546,2.401,1.421c0.614,0.875,0.996,2.089,0.996,3.426
				c0,2.682-1.524,4.847-3.398,4.847h-12.034c-0.937,0-1.781-0.536-2.402-1.421C117.624,254.198,117.241,252.984,117.241,251.648z"
				/>
			<path style="opacity:0.7;fill:#FFFFFF;" d="M110.94,245.304v103.27c0,2.908,1.656,5.261,3.688,5.261h118.628
				c2.039,0,3.694-2.353,3.694-5.261v-103.27c0-2.908-1.656-5.261-3.694-5.261H114.628
				C112.596,240.043,110.94,242.396,110.94,245.304z M211.828,251.648c0-2.673,1.517-4.847,3.398-4.847h12.027
				c0.943,0,1.788,0.546,2.402,1.421c0.613,0.875,0.996,2.089,0.996,3.426c0,2.682-1.518,4.847-3.398,4.847h-12.027
				c-0.937,0-1.788-0.536-2.401-1.421C212.204,254.198,211.828,252.984,211.828,251.648z M117.241,251.648
				c0-2.673,1.517-4.847,3.391-4.847h12.034c0.937,0,1.788,0.546,2.401,1.421c0.614,0.875,0.996,2.089,0.996,3.426
				c0,2.682-1.524,4.847-3.398,4.847h-12.034c-0.937,0-1.781-0.536-2.402-1.421C117.624,254.198,117.241,252.984,117.241,251.648z"
				/>
			<path style="opacity:0.1;" d="M120.19,336.345H227.7c1.63,0,2.952-1.322,2.952-2.952v-27.086c0-1.63-1.322-2.952-2.952-2.952
				H120.19c-1.63,0-2.952,1.322-2.952,2.952v27.086C117.238,335.024,118.56,336.345,120.19,336.345z"/>
			
				<line style="fill:none;stroke:#407BFF;stroke-width:1.576;stroke-miterlimit:10;" x1="236.948" y1="343.007" x2="110.942" y2="343.007"/>
		</g>
		<g>
			<g>
				<g>
					<path style="fill:#263238;" d="M141.674,370.147c-0.758-0.229-1.215-0.62-1.215-1.039v-25.032
						c-0.005-0.093,0.013-0.187,0.056-0.28c0.065-0.145,0.185-0.281,0.349-0.403c0.213-0.159,0.495-0.289,0.82-0.386
						c0.317-0.095,0.68-0.16,1.07-0.187c0.15-0.011,0.304-0.014,0.456-0.014h124.707c0.152,0.001,0.303,0.003,0.453,0.013
						c0.398,0.027,0.768,0.094,1.09,0.192c0.318,0.096,0.593,0.224,0.802,0.38c0.165,0.122,0.285,0.258,0.351,0.404
						c0.042,0.093,0.06,0.187,0.056,0.28v25.032c0,0.419-0.457,0.809-1.215,1.039c-0.759,0.229-1.716,0.266-2.548,0.1
						l-61.342-12.314l-61.342,12.314c-0.344,0.069-0.709,0.103-1.073,0.103C142.633,370.35,142.119,370.281,141.674,370.147z
						 M145.838,345.944v21.271l52.981-10.635L145.838,345.944z M212.308,356.579l52.981,10.635v-21.271L212.308,356.579z
						 M156.078,345.291l49.486,9.934l49.486-9.934H156.078z"/>
				</g>
				<g style="opacity:0.5;">
					<path style="fill:#FFFFFF;" d="M141.674,370.147c-0.758-0.229-1.215-0.62-1.215-1.039v-25.032
						c-0.005-0.093,0.013-0.187,0.056-0.28c0.065-0.145,0.185-0.281,0.349-0.403c0.213-0.159,0.495-0.289,0.82-0.386
						c0.317-0.095,0.68-0.16,1.07-0.187c0.15-0.011,0.304-0.014,0.456-0.014h124.707c0.152,0.001,0.303,0.003,0.453,0.013
						c0.398,0.027,0.768,0.094,1.09,0.192c0.318,0.096,0.593,0.224,0.802,0.38c0.165,0.122,0.285,0.258,0.351,0.404
						c0.042,0.093,0.06,0.187,0.056,0.28v25.032c0,0.419-0.457,0.809-1.215,1.039c-0.759,0.229-1.716,0.266-2.548,0.1
						l-61.342-12.314l-61.342,12.314c-0.344,0.069-0.709,0.103-1.073,0.103C142.633,370.35,142.119,370.281,141.674,370.147z
						 M145.838,345.944v21.271l52.981-10.635L145.838,345.944z M212.308,356.579l52.981,10.635v-21.271L212.308,356.579z
						 M156.078,345.291l49.486,9.934l49.486-9.934H156.078z"/>
				</g>
			</g>
			<g>
				<g>
					<path style="fill:#263238;" d="M125.221,341.375h181.916c1.486,0,2.69,1.204,2.69,2.69l0,0c0,1.486-1.204,2.69-2.69,2.69
						H125.221c-1.486,0-2.69-1.205-2.69-2.69l0,0C122.531,342.579,123.735,341.375,125.221,341.375z"/>
				</g>
				<g style="opacity:0.6;">
					<path style="fill:#FFFFFF;" d="M125.221,341.375h181.916c1.486,0,2.69,1.204,2.69,2.69l0,0c0,1.486-1.204,2.69-2.69,2.69
						H125.221c-1.486,0-2.69-1.205-2.69-2.69l0,0C122.531,342.579,123.735,341.375,125.221,341.375z"/>
				</g>
			</g>
			<g>
				<g>
					<path style="fill:#263238;" d="M294.656,390.166c1.527,0,2.784-1.219,2.821-2.754l0.485-19.683
						c0.019-0.761-0.27-1.497-0.801-2.041c-0.532-0.545-1.26-0.852-2.021-0.852h-151.99c-0.995,0-1.916,0.524-2.426,1.379
						l-10.887,18.276c-0.798,1.339-0.359,3.073,0.981,3.87c1.34,0.8,3.073,0.358,3.87-0.981l10.066-16.897h147.492l-0.414,16.79
						c-0.039,1.559,1.194,2.854,2.753,2.892C294.608,390.166,294.632,390.166,294.656,390.166z"/>
				</g>
				<g style="opacity:0.6;">
					<path style="fill:#FFFFFF;" d="M294.656,390.166c1.527,0,2.784-1.219,2.821-2.754l0.485-19.683
						c0.019-0.761-0.27-1.497-0.801-2.041c-0.532-0.545-1.26-0.852-2.021-0.852h-151.99c-0.995,0-1.916,0.524-2.426,1.379
						l-10.887,18.276c-0.798,1.339-0.359,3.073,0.981,3.87c1.34,0.8,3.073,0.358,3.87-0.981l10.066-16.897h147.492l-0.414,16.79
						c-0.039,1.559,1.194,2.854,2.753,2.892C294.608,390.166,294.632,390.166,294.656,390.166z"/>
				</g>
			</g>
		</g>
		<g>
			<path style="fill:#263238;" d="M326.931,305.784H128.106c-1.021,0-1.848,0.827-1.848,1.848v16.166
				c0,1.021,0.827,1.848,1.848,1.848h198.825c1.021,0,1.848-0.828,1.848-1.848v-16.166
				C328.779,306.612,327.952,305.784,326.931,305.784z"/>
			<path style="opacity:0.2;fill:#FFFFFF;" d="M326.931,305.784H128.106c-1.021,0-1.848,0.827-1.848,1.848v16.166
				c0,1.021,0.827,1.848,1.848,1.848h198.825c1.021,0,1.848-0.828,1.848-1.848v-16.166
				C328.779,306.612,327.952,305.784,326.931,305.784z"/>
			<path style="fill:#407BFF;" d="M421.731,326.506H193.458c-1.183,0-2.141-0.959-2.141-2.142v-17.377
				c0-1.183,0.959-2.142,2.141-2.142h228.273c1.183,0,2.141,0.959,2.141,2.142v17.377
				C423.872,325.547,422.913,326.506,421.731,326.506z"/>
			<path style="opacity:0.2;fill:#FFFFFF;" d="M421.731,326.506H193.458c-1.183,0-2.141-0.959-2.141-2.142v-17.377
				c0-1.183,0.959-2.142,2.141-2.142h228.273c1.183,0,2.141,0.959,2.141,2.142v17.377
				C423.872,325.547,422.913,326.506,421.731,326.506z"/>
		</g>
		<g>
			<g>
				<polygon style="fill:#407BFF;" points="264.095,404.902 259.779,409.219 256.983,409.219 255.758,402.282 				"/>
				<g>
					<path style="fill:#263238;" d="M252.31,399.829c0.565,0,2.707,0,3.272,0c3.798,0,6.877,3.846,6.877,8.59
						c0,4.744-3.079,8.59-6.877,8.59c-0.565,0-2.707,0-3.272,0c-3.798,0-6.876-3.846-6.876-8.59
						C245.434,403.675,248.513,399.829,252.31,399.829z"/>
					<ellipse style="opacity:0.3;fill:#FFFFFF;" cx="252.31" cy="408.419" rx="6.876" ry="8.59"/>
					<ellipse style="opacity:0.3;fill:#FFFFFF;" cx="252.31" cy="408.419" rx="4.424" ry="6.137"/>
				</g>
				<path style="fill:#407BFF;" d="M251.051,407.609v-6.925c0-1.335,0.53-2.614,1.474-3.558l4.026-4.026h7.544v11.806h-6.522
					l-3.822,3.822c-0.317,0.317-0.754,0.485-1.201,0.461l0,0C251.71,409.144,251.051,408.45,251.051,407.609z"/>
				<path style="opacity:0.3;fill:#FFFFFF;" d="M251.05,400.686v6.927c0,0.838,0.659,1.534,1.497,1.572
					c0.452,0.028,0.885-0.141,1.205-0.461l3.821-3.821h6.522V393.1h-7.548l-4.019,4.028
					C251.577,398.069,251.05,399.349,251.05,400.686z"/>
				<path style="opacity:0.2;fill:#FFFFFF;" d="M251.05,400.686v6.927c0,0.838,0.659,1.534,1.497,1.572
					c0.452,0.028,0.885-0.141,1.205-0.461l3.821-3.821V393.1h-1.026l-4.019,4.028C251.577,398.069,251.05,399.349,251.05,400.686z"
					/>
				<g>
					<path style="fill:#407BFF;" d="M249.816,393.952h14.335c0.626,0,1.133-0.507,1.133-1.133v-10.952
						c0-0.626-0.507-1.133-1.133-1.133h-14.335c-0.626,0-1.133,0.507-1.133,1.133v10.952
						C248.683,393.445,249.191,393.952,249.816,393.952z"/>
					<path style="opacity:0.2;fill:#FFFFFF;" d="M248.688,381.862v10.955c0,0.631,0.499,1.139,1.129,1.139h14.334
						c0.621,0,1.13-0.508,1.13-1.139v-10.955c0-0.621-0.508-1.129-1.13-1.129h-14.334
						C249.187,380.733,248.688,381.241,248.688,381.862z"/>
					<path style="opacity:0.2;fill:#FFFFFF;" d="M248.688,381.862v10.955c0,0.631,0.499,1.139,1.129,1.139h7.746
						c0.621,0,1.13-0.508,1.13-1.139v-10.955c0-0.621-0.508-1.129-1.13-1.129h-7.746
						C249.187,380.733,248.688,381.241,248.688,381.862z"/>
				</g>
			</g>
			<g>
				<path style="fill:#407BFF;" d="M260.54,392.463h156.544v-10.611H260.54c-0.339,0-0.614,0.275-0.614,0.614v9.384
					C259.926,392.188,260.201,392.463,260.54,392.463z"/>
				<path style="opacity:0.3;fill:#FFFFFF;" d="M260.54,392.463h156.544v-10.611H260.54c-0.339,0-0.614,0.275-0.614,0.614v9.384
					C259.926,392.188,260.201,392.463,260.54,392.463z"/>
			</g>
			<g>
				<polygon style="fill:#407BFF;" points="424.195,404.902 419.879,409.219 417.084,409.219 415.858,402.282 				"/>
				<g>
					<path style="fill:#263238;" d="M412.411,399.829c0.565,0,2.707,0,3.272,0c3.798,0,6.877,3.846,6.877,8.59
						c0,4.744-3.079,8.59-6.877,8.59c-0.565,0-2.707,0-3.272,0c-3.798,0-6.876-3.846-6.876-8.59
						C405.535,403.675,408.613,399.829,412.411,399.829z"/>
					<ellipse style="opacity:0.3;fill:#FFFFFF;" cx="412.411" cy="408.419" rx="6.877" ry="8.59"/>
					<ellipse style="opacity:0.3;fill:#FFFFFF;" cx="412.411" cy="408.419" rx="4.424" ry="6.137"/>
				</g>
				<path style="fill:#407BFF;" d="M411.152,407.609v-6.925c0-1.335,0.53-2.614,1.474-3.558l4.026-4.026h7.544v11.806h-6.522
					l-3.822,3.822c-0.317,0.317-0.754,0.485-1.201,0.461l0,0C411.81,409.144,411.152,408.45,411.152,407.609z"/>
				<path style="opacity:0.3;fill:#FFFFFF;" d="M411.151,400.686v6.927c0,0.838,0.659,1.534,1.497,1.572
					c0.452,0.028,0.885-0.141,1.205-0.461l3.821-3.821h6.522V393.1h-7.548l-4.019,4.028
					C411.678,398.069,411.151,399.349,411.151,400.686z"/>
				<path style="opacity:0.2;fill:#FFFFFF;" d="M411.151,400.686v6.927c0,0.838,0.659,1.534,1.497,1.572
					c0.452,0.028,0.885-0.141,1.205-0.461l3.821-3.821V393.1h-1.026l-4.019,4.028C411.678,398.069,411.151,399.349,411.151,400.686z
					"/>
				<g>
					<path style="fill:#407BFF;" d="M409.917,393.952h14.335c0.626,0,1.133-0.507,1.133-1.133v-10.952
						c0-0.626-0.507-1.133-1.133-1.133h-14.335c-0.626,0-1.133,0.507-1.133,1.133v10.952
						C408.784,393.445,409.291,393.952,409.917,393.952z"/>
					<path style="opacity:0.2;fill:#FFFFFF;" d="M408.788,381.862v10.955c0,0.631,0.499,1.139,1.129,1.139h14.334
						c0.621,0,1.13-0.508,1.13-1.139v-10.955c0-0.621-0.508-1.129-1.13-1.129h-14.334
						C409.287,380.733,408.788,381.241,408.788,381.862z"/>
					<path style="opacity:0.2;fill:#FFFFFF;" d="M408.788,381.862v10.955c0,0.631,0.499,1.139,1.129,1.139h7.746
						c0.621,0,1.13-0.508,1.13-1.139v-10.955c0-0.621-0.508-1.129-1.13-1.129h-7.746
						C409.287,380.733,408.788,381.241,408.788,381.862z"/>
				</g>
			</g>
		</g>
		<g>
			<path style="fill:#407BFF;" d="M351.197,339.442H125.525c-1.392,0-2.521-1.129-2.521-2.521v-12.1
				c0-1.392,1.129-2.521,2.521-2.521h225.672c1.392,0,2.521,1.129,2.521,2.521v12.1C353.718,338.313,352.59,339.442,351.197,339.442
				z"/>
			<path style="opacity:0.5;fill:#FFFFFF;" d="M351.197,339.442H125.525c-1.392,0-2.521-1.129-2.521-2.521v-12.1
				c0-1.392,1.129-2.521,2.521-2.521h225.672c1.392,0,2.521,1.129,2.521,2.521v12.1C353.718,338.313,352.59,339.442,351.197,339.442
				z"/>
			<g style="opacity:0.7;">
				<path style="fill:#FFFFFF;" d="M187.609,335.577h39.634c2.599,0,4.706-2.107,4.706-4.706c0-2.599-2.107-4.706-4.706-4.706
					h-39.634c-2.599,0-4.706,2.107-4.706,4.706C182.903,333.47,185.01,335.577,187.609,335.577z"/>
			</g>
			<g style="opacity:0.7;">
				<path style="fill:#FFFFFF;" d="M239.641,335.577h64.65c2.599,0,4.706-2.107,4.706-4.706c0-2.599-2.107-4.706-4.706-4.706h-64.65
					c-2.599,0-4.706,2.107-4.706,4.706C234.936,333.47,237.042,335.577,239.641,335.577z"/>
			</g>
			<g style="opacity:0.7;">
				<path style="fill:#FFFFFF;" d="M130.573,335.577h45.638c2.599,0,4.706-2.107,4.706-4.706c0-2.599-2.107-4.706-4.706-4.706
					h-45.638c-2.599,0-4.706,2.107-4.706,4.706C125.867,333.47,127.974,335.577,130.573,335.577z"/>
			</g>
		</g>
		<g>
			<g>
				<path style="fill:#407BFF;" d="M311.087,275.323v73.252c0,2.908,1.656,5.261,3.688,5.261h118.628
					c2.039,0,3.694-2.353,3.694-5.261v-73.252c0-2.908-1.656-5.261-3.694-5.261H314.775
					C312.743,270.062,311.087,272.415,311.087,275.323z M411.974,281.667c0-2.673,1.518-4.847,3.398-4.847h12.027
					c0.943,0,1.788,0.546,2.401,1.421c0.614,0.875,0.996,2.089,0.996,3.426c0,2.682-1.517,4.847-3.398,4.847h-12.027
					c-0.937,0-1.788-0.536-2.401-1.421C412.351,284.217,411.974,283.003,411.974,281.667z M317.388,281.667
					c0-2.673,1.517-4.847,3.391-4.847h12.034c0.937,0,1.788,0.546,2.401,1.421c0.614,0.875,0.996,2.089,0.996,3.426
					c0,2.682-1.524,4.847-3.398,4.847h-12.034c-0.937,0-1.781-0.536-2.402-1.421C317.77,284.217,317.388,283.003,317.388,281.667z"
					/>
				<path style="opacity:0.6;fill:#FFFFFF;" d="M311.087,275.323v73.252c0,2.908,1.656,5.261,3.688,5.261h118.628
					c2.039,0,3.694-2.353,3.694-5.261v-73.252c0-2.908-1.656-5.261-3.694-5.261H314.775
					C312.743,270.062,311.087,272.415,311.087,275.323z M411.974,281.667c0-2.673,1.518-4.847,3.398-4.847h12.027
					c0.943,0,1.788,0.546,2.401,1.421c0.614,0.875,0.996,2.089,0.996,3.426c0,2.682-1.517,4.847-3.398,4.847h-12.027
					c-0.937,0-1.788-0.536-2.401-1.421C412.351,284.217,411.974,283.003,411.974,281.667z M317.388,281.667
					c0-2.673,1.517-4.847,3.391-4.847h12.034c0.937,0,1.788,0.546,2.401,1.421c0.614,0.875,0.996,2.089,0.996,3.426
					c0,2.682-1.524,4.847-3.398,4.847h-12.034c-0.937,0-1.781-0.536-2.402-1.421C317.77,284.217,317.388,283.003,317.388,281.667z"
					/>
			</g>
			<path style="fill:#407BFF;" d="M313.068,275.323v73.252c0,2.908,1.656,5.261,3.688,5.261h118.628
				c2.039,0,3.694-2.353,3.694-5.261v-73.252c0-2.908-1.656-5.261-3.694-5.261H316.756
				C314.724,270.062,313.068,272.415,313.068,275.323z M413.955,281.667c0-2.673,1.517-4.847,3.398-4.847h12.027
				c0.943,0,1.788,0.546,2.402,1.421c0.614,0.875,0.996,2.089,0.996,3.426c0,2.682-1.518,4.847-3.398,4.847h-12.027
				c-0.937,0-1.788-0.536-2.401-1.421C414.331,284.217,413.955,283.003,413.955,281.667z M319.368,281.667
				c0-2.673,1.517-4.847,3.391-4.847h12.034c0.937,0,1.788,0.546,2.401,1.421s0.996,2.089,0.996,3.426
				c0,2.682-1.524,4.847-3.398,4.847h-12.034c-0.937,0-1.781-0.536-2.402-1.421C319.751,284.217,319.368,283.003,319.368,281.667z"
				/>
			<path style="opacity:0.7;fill:#FFFFFF;" d="M313.068,275.323v73.252c0,2.908,1.656,5.261,3.688,5.261h118.628
				c2.039,0,3.694-2.353,3.694-5.261v-73.252c0-2.908-1.656-5.261-3.694-5.261H316.756
				C314.724,270.062,313.068,272.415,313.068,275.323z M413.955,281.667c0-2.673,1.517-4.847,3.398-4.847h12.027
				c0.943,0,1.788,0.546,2.402,1.421c0.614,0.875,0.996,2.089,0.996,3.426c0,2.682-1.518,4.847-3.398,4.847h-12.027
				c-0.937,0-1.788-0.536-2.401-1.421C414.331,284.217,413.955,283.003,413.955,281.667z M319.368,281.667
				c0-2.673,1.517-4.847,3.391-4.847h12.034c0.937,0,1.788,0.546,2.401,1.421s0.996,2.089,0.996,3.426
				c0,2.682-1.524,4.847-3.398,4.847h-12.034c-0.937,0-1.781-0.536-2.402-1.421C319.751,284.217,319.368,283.003,319.368,281.667z"
				/>
			<path style="opacity:0.1;" d="M322.317,336.345h107.509c1.63,0,2.952-1.322,2.952-2.952v-27.086c0-1.63-1.321-2.952-2.952-2.952
				h-107.51c-1.63,0-2.952,1.322-2.952,2.952v27.086C319.366,335.024,320.687,336.345,322.317,336.345z"/>
			
				<line style="fill:none;stroke:#407BFF;stroke-width:1.576;stroke-miterlimit:10;" x1="439.075" y1="343.007" x2="313.069" y2="343.007"/>
			<g>
				<path style="fill:#407BFF;" d="M359.764,268.044v39.467h39.323v-39.467H359.764z M373.565,270.072h11.722v7.689h-11.722V270.072
					z"/>
				<g>
					
						<rect x="390.489" y="285.296" transform="matrix(-1 -1.224647e-16 1.224647e-16 -1 789.1996 591.256)" style="fill:#407BFF;" width="8.221" height="20.664"/>
					
						<rect x="390.489" y="285.296" transform="matrix(-1 -1.224647e-16 1.224647e-16 -1 789.1996 591.256)" style="opacity:0.2;" width="8.221" height="20.664"/>
				</g>
				<g>
					
						<rect x="360.122" y="285.296" transform="matrix(-1 -1.224647e-16 1.224647e-16 -1 728.4654 591.256)" style="fill:#407BFF;" width="8.221" height="20.664"/>
					
						<rect x="360.122" y="285.296" transform="matrix(-1 -1.224647e-16 1.224647e-16 -1 728.4654 591.256)" style="opacity:0.2;" width="8.221" height="20.664"/>
				</g>
				<g>
					
						<rect x="392.47" y="285.296" transform="matrix(-1 -1.224647e-16 1.224647e-16 -1 793.1606 591.256)" style="fill:#407BFF;" width="8.221" height="20.664"/>
					
						<rect x="392.47" y="285.296" transform="matrix(-1 -1.224647e-16 1.224647e-16 -1 793.1606 591.256)" style="opacity:0.2;fill:#FFFFFF;" width="8.221" height="20.664"/>
				</g>
				<g>
					
						<rect x="362.103" y="285.296" transform="matrix(-1 -1.224647e-16 1.224647e-16 -1 732.4263 591.256)" style="fill:#407BFF;" width="8.221" height="20.664"/>
					
						<rect x="362.103" y="285.296" transform="matrix(-1 -1.224647e-16 1.224647e-16 -1 732.4263 591.256)" style="opacity:0.2;fill:#FFFFFF;" width="8.221" height="20.664"/>
				</g>
				
					<rect x="356.452" y="268.044" transform="matrix(-1 -1.224647e-16 1.224647e-16 -1 718.2113 538.1064)" style="fill:#407BFF;" width="5.307" height="2.018"/>
			</g>
		</g>
		<g>
			<g>
				<polygon style="fill:#407BFF;" points="141.665,404.902 137.349,409.219 134.554,409.219 133.328,402.282 				"/>
				<g>
					<path style="fill:#263238;" d="M129.881,399.829c0.565,0,2.707,0,3.272,0c3.798,0,6.877,3.846,6.877,8.59
						c0,4.744-3.079,8.59-6.877,8.59c-0.565,0-2.707,0-3.272,0c-3.798,0-6.876-3.846-6.876-8.59
						C123.004,403.675,126.083,399.829,129.881,399.829z"/>
					<ellipse style="opacity:0.3;fill:#FFFFFF;" cx="129.881" cy="408.419" rx="6.876" ry="8.59"/>
					<ellipse style="opacity:0.3;fill:#FFFFFF;" cx="129.881" cy="408.419" rx="4.424" ry="6.137"/>
				</g>
				<path style="fill:#407BFF;" d="M128.621,407.609v-6.925c0-1.335,0.53-2.614,1.474-3.558l4.026-4.026h7.544v11.806h-6.522
					l-3.822,3.822c-0.317,0.317-0.754,0.485-1.201,0.461l0,0C129.28,409.144,128.621,408.45,128.621,407.609z"/>
				<path style="opacity:0.7;fill:#FFFFFF;" d="M128.62,400.686v6.927c0,0.838,0.659,1.534,1.497,1.572
					c0.452,0.028,0.885-0.141,1.205-0.461l3.821-3.821h6.522V393.1h-7.548l-4.019,4.028
					C129.148,398.069,128.62,399.349,128.62,400.686z"/>
				<path style="opacity:0.2;fill:#FFFFFF;" d="M128.62,400.686v6.927c0,0.838,0.659,1.534,1.497,1.572
					c0.452,0.028,0.885-0.141,1.205-0.461l3.821-3.821V393.1h-1.026l-4.019,4.028C129.148,398.069,128.62,399.349,128.62,400.686z"
					/>
				<g>
					<path style="fill:#407BFF;" d="M127.386,393.952h14.335c0.626,0,1.133-0.507,1.133-1.133v-10.952
						c0-0.626-0.507-1.133-1.133-1.133h-14.335c-0.626,0-1.133,0.507-1.133,1.133v10.952
						C126.254,393.445,126.761,393.952,127.386,393.952z"/>
					<path style="opacity:0.5;fill:#FFFFFF;" d="M126.258,381.862v10.955c0,0.631,0.499,1.139,1.129,1.139h14.334
						c0.621,0,1.13-0.508,1.13-1.139v-10.955c0-0.621-0.508-1.129-1.13-1.129h-14.334
						C126.757,380.733,126.258,381.241,126.258,381.862z"/>
					<path style="opacity:0.2;fill:#FFFFFF;" d="M126.258,381.862v10.955c0,0.631,0.499,1.139,1.129,1.139h7.746
						c0.621,0,1.13-0.508,1.13-1.139v-10.955c0-0.621-0.508-1.129-1.13-1.129h-7.746
						C126.757,380.733,126.258,381.241,126.258,381.862z"/>
				</g>
			</g>
			<g>
				<path style="fill:#407BFF;" d="M138.11,392.463h156.544v-10.611H138.11c-0.339,0-0.614,0.275-0.614,0.614v9.384
					C137.497,392.188,137.771,392.463,138.11,392.463z"/>
				<path style="opacity:0.7;fill:#FFFFFF;" d="M138.11,392.463h156.544v-10.611H138.11c-0.339,0-0.614,0.275-0.614,0.614v9.384
					C137.497,392.188,137.771,392.463,138.11,392.463z"/>
			</g>
			<g>
				<polygon style="fill:#407BFF;" points="301.766,404.902 297.449,409.219 294.654,409.219 293.428,402.282 				"/>
				<g>
					<path style="fill:#263238;" d="M289.981,399.829c0.565,0,2.707,0,3.272,0c3.798,0,6.877,3.846,6.877,8.59
						c0,4.744-3.079,8.59-6.877,8.59c-0.565,0-2.707,0-3.272,0c-3.798,0-6.876-3.846-6.876-8.59
						C283.105,403.675,286.184,399.829,289.981,399.829z"/>
					<ellipse style="opacity:0.3;fill:#FFFFFF;" cx="289.981" cy="408.419" rx="6.876" ry="8.59"/>
					<ellipse style="opacity:0.3;fill:#FFFFFF;" cx="289.981" cy="408.419" rx="4.424" ry="6.137"/>
				</g>
				<path style="fill:#407BFF;" d="M288.722,407.609v-6.925c0-1.335,0.53-2.614,1.474-3.558l4.026-4.026h7.544v11.806h-6.522
					l-3.822,3.822c-0.317,0.317-0.754,0.485-1.201,0.461l0,0C289.381,409.144,288.722,408.45,288.722,407.609z"/>
				<path style="opacity:0.7;fill:#FFFFFF;" d="M288.721,400.686v6.927c0,0.838,0.659,1.534,1.496,1.572
					c0.452,0.028,0.885-0.141,1.205-0.461l3.821-3.821h6.522V393.1h-7.548l-4.019,4.028
					C289.248,398.069,288.721,399.349,288.721,400.686z"/>
				<path style="opacity:0.2;fill:#FFFFFF;" d="M288.721,400.686v6.927c0,0.838,0.659,1.534,1.496,1.572
					c0.452,0.028,0.885-0.141,1.205-0.461l3.821-3.821V393.1h-1.026l-4.019,4.028C289.248,398.069,288.721,399.349,288.721,400.686z
					"/>
				<g>
					<path style="fill:#407BFF;" d="M287.487,393.952h14.335c0.626,0,1.133-0.507,1.133-1.133v-10.952
						c0-0.626-0.507-1.133-1.133-1.133h-14.335c-0.626,0-1.133,0.507-1.133,1.133v10.952
						C286.354,393.445,286.861,393.952,287.487,393.952z"/>
					<path style="opacity:0.5;fill:#FFFFFF;" d="M286.359,381.862v10.955c0,0.631,0.499,1.139,1.129,1.139h14.334
						c0.621,0,1.13-0.508,1.13-1.139v-10.955c0-0.621-0.508-1.129-1.13-1.129h-14.334
						C286.858,380.733,286.359,381.241,286.359,381.862z"/>
					<path style="opacity:0.2;fill:#FFFFFF;" d="M286.359,381.862v10.955c0,0.631,0.499,1.139,1.129,1.139h7.746
						c0.621,0,1.13-0.508,1.13-1.139v-10.955c0-0.621-0.508-1.129-1.13-1.129h-7.746
						C286.858,380.733,286.359,381.241,286.359,381.862z"/>
				</g>
			</g>
		</g>
		<path style="opacity:0.1;" d="M226.349,261.692H121.588c-2.401,0-4.347,1.946-4.347,4.347v28.041c0,2.401,1.946,4.347,4.347,4.347
			h104.761c2.401,0,4.347-1.946,4.347-4.347v-28.041C230.696,263.638,228.749,261.692,226.349,261.692z"/>
	</g>
</g>
<g id="Plant">
	<g>
		<path style="fill:#407BFF;" d="M91.287,392.853c0,0,4.75-10.364-0.677-20.581s-7.001-12.624-3.541-14.717s5.047,8.173,5.047,8.173
			s2.916-7.063,0.508-14.454c-2.408-7.392-3.918-19.431-0.63-20.722c3.289-1.291,0.628,15.019,3.481,20.578
			c0,0,2.397-6.189,2.791-12.126c0.394-5.937-0.222-15.417,2.375-17.849s4.261-0.749,1.708,12.353
			c-2.552,13.102-2.533,23.752-2.533,23.752s5.637-17.186,9.42-17.688c3.783-0.501,3.778,5.064,0.54,9.892
			c-3.238,4.827-9.483,13.476-10.507,17.926c0,0,6.187-12.934,11.753-8.97c5.566,3.964-4.844,11.776-9.484,14.599
			c-4.64,2.823-7.862,20.518-7.862,20.518L91.287,392.853z"/>
		<path style="opacity:0.2;enable-background:new    ;" d="M91.287,392.853c0,0,4.75-10.364-0.677-20.581
			s-7.001-12.624-3.541-14.717s5.047,8.173,5.047,8.173s2.916-7.063,0.508-14.454c-2.408-7.392-3.918-19.431-0.63-20.722
			c3.289-1.291,0.628,15.019,3.481,20.578c0,0,2.397-6.189,2.791-12.126c0.394-5.937-0.222-15.417,2.375-17.849
			s4.261-0.749,1.708,12.353c-2.552,13.102-2.533,23.752-2.533,23.752s5.637-17.186,9.42-17.688c3.783-0.501,3.778,5.064,0.54,9.892
			c-3.238,4.827-9.483,13.476-10.507,17.926c0,0,6.187-12.934,11.753-8.97c5.566,3.964-4.844,11.776-9.484,14.599
			c-4.64,2.823-7.862,20.518-7.862,20.518L91.287,392.853z"/>
		<path style="fill:#407BFF;" d="M95.037,397.103c0,0-4.625-10.434,0.924-20.569c5.549-10.135,7.151-12.518,3.717-14.663
			c-3.434-2.145-5.145,8.097-5.145,8.097s-2.831-7.106-0.335-14.461c2.497-7.355,4.151-19.371,0.878-20.711
			c-3.273-1.34-0.808,15.008-3.728,20.525c0,0-2.322-6.224-2.645-12.167c-0.323-5.942,0.407-15.412-2.161-17.883
			c-2.567-2.47-4.251-0.813-1.856,12.326s2.248,23.788,2.248,23.788s-5.43-17.269-9.207-17.827
			c-3.777-0.558-3.839,5.008-0.659,9.883c3.18,4.875,9.321,13.616,10.292,18.081c0,0-6.032-13.025-11.644-9.144
			c-5.613,3.881,4.703,11.847,9.308,14.739c4.606,2.892,7.615,20.633,7.615,20.633L95.037,397.103z"/>
		<g>
			<polygon style="fill:#263238;" points="73.703,389.665 111.914,389.665 108.822,417.009 76.796,417.009 			"/>
		</g>
	</g>
</g>
<g id="Character">
	<g>
		<g>
			<g>
				<path style="fill:#263238;" d="M171.084,413.786c0-1.778,1.441-3.219,3.219-3.219s3.219,1.441,3.219,3.219
					c0,1.778-1.441,3.219-3.219,3.219S171.084,415.564,171.084,413.786z"/>
				<path style="fill:#263238;" d="M126.345,413.786c0-1.778,1.441-3.219,3.219-3.219s3.219,1.441,3.219,3.219
					c0,1.778-1.441,3.219-3.219,3.219S126.345,415.564,126.345,413.786z"/>
			</g>
			<path style="fill:none;stroke:#263238;stroke-width:4;stroke-linecap:round;stroke-linejoin:round;stroke-miterlimit:10;" d="
				M174.304,413.786v-3.303c0-1.854-1.503-3.357-3.357-3.357h-38.024c-1.854,0-3.357,1.503-3.357,3.357v3.303"/>
			
				<line style="fill:none;stroke:#263238;stroke-width:4;stroke-linecap:round;stroke-linejoin:round;stroke-miterlimit:10;" x1="151.934" y1="407.126" x2="151.934" y2="159.359"/>
			<path style="fill:none;stroke:#263238;stroke-width:2;stroke-linecap:round;stroke-linejoin:round;stroke-miterlimit:10;" d="
				M174.511,166.398L174.511,166.398c2.326,0,4.212-1.886,4.212-4.212v-0.312c0-2.326-1.886-4.212-4.212-4.212h-45.154
				c-2.326,0-4.212,1.886-4.212,4.212v0.312c0,2.326,1.886,4.212,4.212,4.212l0,0c2.326,0,4.212-1.886,4.212-4.212v-0.598"/>
			<g>
				<path style="fill:#407BFF;" d="M167.74,170.911c0-1.085,0.88-1.965,1.965-1.965h0c1.085,0,1.964-0.88,1.964-1.964v-0.369
					c0-1.676,1.255-3.179,2.929-3.266c1.785-0.093,3.262,1.326,3.262,3.091v0.623c0,1.089,0.916,1.865,2.004,1.886
					c1.067,0.021,1.925,0.893,1.925,1.964v21.877c0,1.305-1.058,2.363-2.363,2.363h-1.011c-1.305,0-2.363,1.058-2.363,2.363v1.676
					h-2.575v-1.676c0-1.305-1.058-2.363-2.363-2.363h-1.011c-1.305,0-2.363-1.058-2.363-2.363V170.911z"/>
				<path style="opacity:0.7;fill:#FFFFFF;" d="M167.74,170.911c0-1.085,0.88-1.965,1.965-1.965h0c1.085,0,1.964-0.88,1.964-1.964
					v-0.369c0-1.676,1.255-3.179,2.929-3.266c1.785-0.093,3.262,1.326,3.262,3.091v0.623c0,1.089,0.916,1.865,2.004,1.886
					c1.067,0.021,1.925,0.893,1.925,1.964v21.877c0,1.305-1.058,2.363-2.363,2.363h-1.011c-1.305,0-2.363,1.058-2.363,2.363v1.676
					h-2.575v-1.676c0-1.305-1.058-2.363-2.363-2.363h-1.011c-1.305,0-2.363-1.058-2.363-2.363V170.911z"/>
				<path style="opacity:0.1;" d="M170.005,193.611h9.519c0.601,0,1.088-0.487,1.088-1.088v-21.429c0-0.601-0.487-1.088-1.088-1.088
					h-9.519c-0.601,0-1.088,0.487-1.088,1.088v21.429C168.917,193.124,169.404,193.611,170.005,193.611z"/>
				<path style="fill:#407BFF;" d="M180.612,183.74v8.691c0,0.652-0.529,1.18-1.18,1.18h-9.334c-0.652,0-1.18-0.528-1.18-1.18
					v-8.691H180.612z"/>
			</g>
			<path style="fill:none;stroke:#263238;stroke-width:2;stroke-linecap:round;stroke-linejoin:round;stroke-miterlimit:10;" d="
				M170.299,161.588v0.598c0,2.326,1.886,4.212,4.212,4.212"/>
			<path style="fill:none;stroke:#407BFF;stroke-miterlimit:10;" d="M162.656,245.324c1.78,0.643,1.582,3.18,1.582,3.18v14.453
				c0,2.907,2.356,5.263,5.263,5.263l0,0c2.907,0,5.263-2.356,5.263-5.263v-66.193"/>
		</g>
		<g>
			<polygon style="fill:#263238;" points="157.846,392.452 157.846,367.944 242.089,367.944 242.089,417.009 217.073,417.009 
				157.846,417.009 132.83,417.009 132.83,392.452 			"/>
			<polygon style="opacity:0.2;fill:#FFFFFF;" points="132.826,392.454 132.826,417.006 242.089,417.006 242.089,367.942 
				157.846,367.942 157.846,392.454 			"/>
			<polygon style="opacity:0.2;fill:#FFFFFF;" points="132.829,392.454 132.829,417.006 192.869,417.006 192.869,392.454 
				217.879,392.454 217.879,367.942 157.849,367.942 157.849,392.454 			"/>
			<rect x="132.829" y="392.454" style="opacity:0.2;fill:#FFFFFF;" width="60.04" height="24.552"/>
		</g>
		<g>
			<path style="fill:#263238;" d="M225.303,203.574c0,0-2.687-6.725-12.281-5.143s-12.979,10.977-11.573,15.055
				c1.406,4.078-0.264,9.142-1.714,10.164c-1.451,1.022-0.264,3.528,0.659,5.242c0.923,1.714,1.017,2.75-1.338,6.523
				c-2.356,3.773-1.035,8.114,1.206,9.96c2.242,1.846,25.07,4.932,29.407,1.319c6.725-5.604,0.936-9.56,0.936-11.279
				c0-1.969,1.467-2.963,1.782-6.655c0.315-3.692-2.982-6.071-3.377-7.98s0.989-3.815,1.022-6.225
				c0.033-2.41-1.669-2.705-2.005-6.184C227.691,204.893,225.303,203.574,225.303,203.574z"/>
			<path style="fill:#EBB376;" d="M154.723,403.705c5.061-1.428,8.758-3.605,11.377-4.989c2.242-1.191,2.259-0.601,4.569-1.723
				c1.53-0.743,1.554-2.885,0.427-3.934c-0.878-0.817-2.14-1.692-3.031-2.874l-6.541,1.095c-0.269,2.686-4.627,8.428-8.401,9.782
				C150.426,402.036,152.696,404.274,154.723,403.705z"/>
			<g>
				<path style="fill:#407BFF;" d="M197.393,279.975c0,0-24.99,29.812-33.134,44.345c-3.164,5.647-2.904,68.217-2.904,68.217
					l9.315-2.461l9.346-58.361l37.766-36.981l6.794-13.912L197.393,279.975z"/>
			</g>
			<g style="opacity:0.2;">
				<path d="M161.351,392.536l9.32-2.46l8.91-55.63l0.44-2.73l15.23-14.92l22.53-22.06l6.79-13.91l-27.18-0.85
					c0,0-24.99,29.81-33.13,44.34C161.091,329.966,161.351,392.536,161.351,392.536z"/>
			</g>
			<path style="opacity:0.2;" d="M179.581,334.446l0.44-2.73l15.23-14.92l8.16-24.59c0,0-20.03,10.8-26.09,21.08
				C174.141,318.676,176.561,327.376,179.581,334.446z"/>
			<path style="fill:#EBB376;" d="M182.522,392.932c5.154-1.042,9.006-2.933,11.721-4.115c2.325-1.019,2.298-0.429,4.686-1.373
				c1.582-0.626,1.768-2.76,0.723-3.891c-0.814-0.881-2.006-1.849-2.805-3.095l-6.605,0.598c-0.471,2.658-5.251,8.055-9.116,9.12
				C178.364,390.943,180.458,393.345,182.522,392.932z"/>
			<g>
				<path style="fill:#407BFF;" d="M224.575,280.822c0,0-35.718,16.257-42.819,30.831c-4.967,10.193,7.838,69.564,7.838,69.564
					l8.899-0.629c-0.161-20.601,1.435-57.223,1.435-57.223s25.354-11.834,27.735-17.213
					C232.142,296.037,224.575,280.822,224.575,280.822z"/>
			</g>
			<g style="opacity:0.2;">
				<path d="M224.575,280.822c0,0-35.718,16.257-42.819,30.831c-4.967,10.193,7.838,69.564,7.838,69.564l8.899-0.629
					c-0.161-20.601,1.435-57.223,1.435-57.223s25.354-11.834,27.735-17.213C232.142,296.037,224.575,280.822,224.575,280.822z"/>
			</g>
			<g>
				<path style="fill:#E9B376;" d="M201.856,248.163c-1.61,1.307-3.223,2.444-4.87,3.629c-1.67,1.134-3.365,2.243-5.121,3.315
					c-1.759,1.078-3.58,2.066-5.64,2.995c-0.519,0.225-1.068,0.443-1.657,0.65c-0.601,0.205-1.219,0.404-2.046,0.557
					c-1.63,0.278-2.969,0.175-4.206-0.005c-1.233-0.194-2.348-0.493-3.407-0.838c-1.063-0.344-2.077-0.721-3.05-1.149
					c-1.951-0.85-3.789-1.789-5.562-2.815c-3.555-2.042-6.834-4.314-10.015-6.875c-0.936-0.754-1.084-2.124-0.33-3.06
					c0.652-0.809,1.763-1.029,2.658-0.588l0.059,0.03c3.417,1.687,6.962,3.317,10.444,4.747c1.754,0.692,3.497,1.37,5.226,1.881
					c1.709,0.524,3.446,0.951,4.894,1.025c0.707,0.05,1.354-0.002,1.651-0.107c0.135-0.046,0.446-0.171,0.76-0.319
					c0.323-0.153,0.673-0.33,1.037-0.533c1.473-0.78,3.023-1.818,4.575-2.841c1.554-1.035,3.102-2.138,4.635-3.269
					c1.554-1.084,3.106-2.267,4.609-3.348l0.045-0.032c1.962-1.411,4.697-0.964,6.108,0.998
					C204.009,244.1,203.635,246.713,201.856,248.163z"/>
			</g>
			<path style="fill:#407BFF;" d="M203.406,236.361c-6.211,0.693-14.584,9.308-14.584,9.308s3.372,11.731,6.623,12.426
				C198.696,258.79,203.406,236.361,203.406,236.361z"/>
			<path style="opacity:0.1;" d="M197.328,256.43c-0.648,1.151-1.296,1.795-1.887,1.666c-1.267-0.272-2.561-2.236-3.658-4.519
				c1.691-2.83,4.724-5.076,4.724-5.076C197.573,250.444,197.794,253.686,197.328,256.43z"/>
			<path style="fill:#407BFF;" d="M194.592,248.198c-0.034,2.841-0.348,5.008,0.174,11.777c0.332,5.732,0.214,12.305,1.221,21.692
				h29.99c-0.735-8.123-0.46-18.894,4.377-37.293c1.122-4.266-1.637-8.29-5.925-8.643c-1.146-0.094-2.361-0.168-3.608-0.205
				c-4.846-0.142-8.818-0.222-13.111,0.249c-1.423,0.156-2.896,0.363-4.304,0.586C198.324,237.166,194.652,243.107,194.592,248.198z
				"/>
			<path style="fill:#EBB376;" d="M149.665,243.841l0.765,2.014c0.288,0.757,0.924,1.329,1.708,1.535l3.663,0.96
				c1.464,0.384,3.024,0.035,4.185-0.936l0.719-0.602c-1.041-3.427-4.691-6.365-4.691-6.365l-0.947-0.953
				c-0.844-0.848-2.135-0.882-2.966-0.077l-1.912,1.853C149.528,241.911,149.32,242.933,149.665,243.841z"/>
			<g>
				<path style="fill:#EBB376;" d="M219.621,220.78c-1.061,4.24-2.316,11.996,0.479,14.759c0,0-2.827,3.639-12.887,9.276
					c-3.808-4.978-0.225-9.027-0.225-9.027c4.767-1.214,4.839-4.707,4.202-7.974L219.621,220.78z"/>
				<path style="opacity:0.2;" d="M216.184,223.651l-4.989,4.16c0.154,0.773,0.263,1.558,0.275,2.323
					c1.812-0.294,4.39-2.317,4.685-4.204C216.302,224.988,216.313,224.085,216.184,223.651z"/>
				<path style="fill:#EBB376;" d="M223.063,212.245c-1.151,6.836-1.493,9.746-5.318,13.087c-5.753,5.025-13.835,2.578-14.735-4.352
					c-0.81-6.238,1.208-16.369,8.185-18.751C218.068,199.882,224.214,205.409,223.063,212.245z"/>
				<path style="fill:#263238;" d="M214.385,213.545c-0.072,0.578-0.429,1.03-0.799,1.01c-0.37-0.02-0.611-0.505-0.539-1.083
					c0.072-0.578,0.429-1.03,0.799-1.01C214.215,212.482,214.457,212.967,214.385,213.545z"/>
				<path style="fill:#263238;" d="M207.201,212.931c-0.072,0.578-0.429,1.03-0.799,1.01c-0.37-0.02-0.611-0.505-0.539-1.083
					c0.072-0.578,0.429-1.03,0.799-1.01C207.032,211.868,207.273,212.353,207.201,212.931z"/>
				<path style="fill:#263238;" d="M206.821,211.889l-1.308-0.474C205.513,211.414,206.075,212.537,206.821,211.889z"/>
				<path style="fill:#D58745;" d="M209.092,213.486c0,0-1.268,2.436-2.473,3.578c0.658,0.753,1.967,0.497,1.967,0.497
					L209.092,213.486z"/>
				<path style="fill:#263238;" d="M215.897,209.981c-0.088,0.003-0.176-0.029-0.239-0.097c-0.986-1.062-2.206-0.808-2.221-0.805
					c-0.181,0.038-0.352-0.076-0.379-0.259c-0.026-0.183,0.1-0.364,0.283-0.405c0.064-0.014,1.595-0.335,2.819,0.984
					c0.122,0.131,0.108,0.347-0.03,0.481C216.064,209.944,215.98,209.978,215.897,209.981z"/>
				<path style="fill:#263238;" d="M204.723,208.965c-0.083,0.014-0.169-0.003-0.239-0.055c-0.144-0.106-0.168-0.318-0.053-0.473
					c1.154-1.551,2.693-1.535,2.759-1.533c0.184,0.004,0.319,0.16,0.301,0.347c-0.017,0.187-0.181,0.336-0.364,0.333
					c-0.06-0.002-1.255,0.003-2.173,1.237C204.896,208.902,204.811,208.951,204.723,208.965z"/>
				<path style="fill:#263238;" d="M214.005,212.503l-1.308-0.474C212.697,212.029,213.259,213.151,214.005,212.503z"/>
				<path style="fill:#263238;" d="M221.151,217.364c0,0-2.869-7.274-2.387-13.422c0,0-8.18-2.899-12.538,2.174
					c0,0,1.145-4.792,8.409-5.58C221.898,199.748,230.167,208.755,221.151,217.364z"/>
				<path style="fill:#EBB376;" d="M224.721,218.013c-0.92,1.35-2.308,2.137-3.542,2.349c-1.857,0.319-2.494-1.539-1.734-3.317
					c0.684-1.601,2.474-3.696,4.22-3.204C225.386,214.326,225.773,216.469,224.721,218.013z"/>
				<path style="fill:none;stroke:#263238;stroke-width:0.5;stroke-linecap:round;stroke-linejoin:round;stroke-miterlimit:10;" d="
					M211.538,219.871c0,0-1.982,0.079-3.417,0.838"/>
			</g>
			<path style="opacity:0.1;" d="M230.031,245.627c-1.311,5.078-2.313,9.441-3.042,13.278c-4.341-5.678-2.359-14.237-2.359-14.237
				C226.395,243.572,228.296,244.148,230.031,245.627z"/>
			<g>
				<path style="fill:#E9B376;" d="M231.794,242.481c0.86,4.862,1.67,9.764,2.467,14.641c0.836,4.851,1.617,9.794,2.569,14.442
					c0.236,1.135,0.499,2.178,0.833,3.281c0.342,1.113,0.703,2.258,1.09,3.403c0.787,2.291,1.612,4.612,2.458,6.926
					c0.828,2.324,1.665,4.657,2.531,6.981c0.842,2.332,1.691,4.676,2.5,7.02l0.006,0.017c0.393,1.137-0.211,2.377-1.348,2.77
					c-0.988,0.341-2.055-0.072-2.575-0.932c-2.607-4.313-4.968-8.718-7.26-13.205c-1.118-2.257-2.228-4.521-3.251-6.865
					c-0.511-1.176-1.028-2.358-1.498-3.597c-0.24-0.614-0.461-1.283-0.69-1.924c-0.193-0.648-0.407-1.324-0.577-1.954
					c-0.706-2.531-1.259-4.98-1.803-7.445c-0.557-2.459-1.033-4.919-1.511-7.378c-0.968-4.917-1.834-9.825-2.578-14.784
					c-0.358-2.39,1.288-4.617,3.678-4.976c2.35-0.353,4.543,1.234,4.957,3.558L231.794,242.481z"/>
			</g>
			<path style="fill:#407BFF;" d="M226.607,236.368c5.74,2.402,8.851,12.537,8.851,12.537s-4.619,8.584-10.932,11.636
				c0,0-5.424-13.726-3.531-19.269C222.889,235.73,226.607,236.368,226.607,236.368z"/>
			<g>
				<path style="fill:#EBB376;" d="M243.893,297.813l7.988,0.613l-1.645,6.808c0,0-5.644,0.356-7.607-3.876L243.893,297.813z"/>
				<polygon style="fill:#EBB376;" points="256.697,301.481 254.256,306.262 250.237,305.235 251.882,298.427 				"/>
			</g>
			<path style="fill:#263238;" d="M212.536,201.68c0,0,0.397,5.322,3.738,5.718c3.34,0.396,3.359,4.969,3.359,4.969l4.519-6.659
				l-3.557-4.54L212.536,201.68z"/>
			<path style="fill:none;stroke:#263238;stroke-width:0.5;stroke-linecap:round;stroke-linejoin:round;stroke-miterlimit:10;" d="
				M206.821,201.68c-5.603,3.839-7.06,8.396-6.097,13.157c0.963,4.76-2.275,6.902-3.165,9.473c-0.89,2.571,1.582,4.549,0.989,6.429
				c-0.593,1.879-2.077,2.059-2.077,2.059"/>
			<path style="fill:none;stroke:#263238;stroke-width:0.5;stroke-linecap:round;stroke-linejoin:round;stroke-miterlimit:10;" d="
				M212.536,201.68c0,0-1.024,5.115,3.126,6.257c4.15,1.142,2.37,7.156,5.633,5.83"/>
			<path style="fill:none;stroke:#263238;stroke-width:0.5;stroke-linecap:round;stroke-linejoin:round;stroke-miterlimit:10;" d="
				M227.476,207.937c0,2.559,4.567,5.571,3.129,10.735c-0.959,3.446,3.003,5.934,2.954,10.154c-0.03,2.586-2.967,5.736-0.923,8.242"
				/>
			<polygon style="fill:#407BFF;" points="160.704,244.704 159.985,247.414 158.452,246.857 159.267,243.977 			"/>
			<polygon style="opacity:0.7;fill:#FFFFFF;" points="160.704,244.704 159.985,247.414 158.452,246.857 159.267,243.977 			"/>
			<path style="fill:none;stroke:#407BFF;stroke-linecap:round;stroke-linejoin:round;stroke-miterlimit:10;" d="M159.578,245.324
				c0,0,1.297-0.643,3.077,0"/>
		</g>
	</g>
</g>
</svg>
