<?xml version="1.0" encoding="utf-8"?>
<!-- Generator: Adobe Illustrator 27.5.0, SVG Export Plug-In . SVG Version: 6.00 Build 0)  -->
<svg version="1.1" xmlns="http://www.w3.org/2000/svg" xmlns:xlink="http://www.w3.org/1999/xlink" x="0px" y="0px"
	 viewBox="0 0 500 500" style="enable-background:new 0 0 500 500;" xml:space="preserve">
<g id="BACKGROUND">
	<g>
		<defs>
			<polygon id="SVGID_1_" points="499.059,500 -0.941,500 0,0 500,0 			"/>
		</defs>
		<clipPath id="SVGID_00000129192556806119505360000002693465186566761655_">
			<use xlink:href="#SVGID_1_"  style="overflow:visible;"/>
		</clipPath>
		<g style="clip-path:url(#SVGID_00000129192556806119505360000002693465186566761655_);">
			<polygon style="fill:#F6F9FD;" points="499.059,500 -0.941,500 0,0 500,0 			"/>
			<line style="fill:none;stroke:#D9E6F7;stroke-miterlimit:10;" x1="44.77" y1="402.423" x2="473.802" y2="402.423"/>
			<line style="fill:none;stroke:#D9E6F7;stroke-miterlimit:10;" x1="-40.426" y1="439.773" x2="558.844" y2="439.773"/>
			<line style="fill:none;stroke:#D9E6F7;stroke-miterlimit:10;" x1="-34.596" y1="483.78" x2="564.674" y2="483.78"/>
		</g>
		<g style="clip-path:url(#SVGID_00000129192556806119505360000002693465186566761655_);">
			<polygon style="fill:#C1D6F2;" points="84.278,47.894 -60.347,-117.923 -60.347,-134.568 541.38,-134.568 541.38,-110.307 
				397.156,47.894 			"/>
			<polygon style="fill:#FFFFFF;" points="304.53,19.95 385.913,19.95 396.988,14.838 305.727,14.838 			"/>
			<rect x="83.903" y="47.644" style="fill:#DCE8F8;" width="414.088" height="318.887"/>
			<rect x="123.577" y="78.607" style="fill:#C2D7F2;" width="256.923" height="145.716"/>
			<path style="fill:#7592CA;" d="M511.86,182.544c-0.375,0-0.75,0-1.124,0"/>
			<polygon style="fill:#7592CA;" points="84.278,366.531 -58.94,474.304 -60.347,-117.923 84.278,47.644 			"/>
			<polygon style="fill:#CADCF4;" points="438.311,389.165 578.346,498.706 578.346,-157.945 438.311,2.751 			"/>
			<polygon style="fill:#C1D6F2;" points="397.156,47.894 438.311,47.894 438.311,2.751 			"/>
			<polygon style="fill:#FFFFFF;" points="192.178,-11.722 91.481,-11.722 77.777,-24.374 190.697,-24.374 			"/>
			<polygon style="fill:#FFFFFF;" points="197.556,19.95 116.173,19.95 105.098,14.838 196.359,14.838 			"/>
			<polygon style="fill:#FFFFFF;" points="310.076,-11.722 410.773,-11.722 424.478,-24.374 311.557,-24.374 			"/>
			<path style="fill:#FFFFFF;" d="M63.165,68.34c-0.843,2.538,0,220.306,0,220.306l-95.306,45.43V-11.722L63.165,68.34z"/>
			<polygon style="fill:#9BBDEA;" points="475.594,44.047 475.594,244.509 594.515,284.02 594.515,-24.374 			"/>
			<polygon style="fill:#C1D6F2;" points="487.401,47.565 487.401,239.804 594.515,268.034 594.515,-7.505 			"/>
			<rect x="2.439" y="2.751" style="fill:#7592CA;" width="6.343" height="339.93"/>
			<g>
				<path style="fill:#9BBDEA;" d="M71.632,346.252l4.705,26.207c16.272,7.842,32.739,0,32.739,0l3.725-26.207H71.632z"/>
				<path style="fill:#7592CA;" d="M112.801,346.252c0,1.114-8.54,2.023-19.322,2.086c-0.18,0.008-0.368,0.008-0.549,0.008h-1.333
					c-0.4,0-0.8-0.008-1.2-0.008H90.06c-10.359-0.118-18.428-1.004-18.428-2.086c0-1.09,8.116-1.984,18.514-2.094h0.572
					c0.337-0.008,0.682-0.008,1.027-0.008h1.435c0.149,0,0.298,0,0.447,0.008C104.34,344.229,112.801,345.139,112.801,346.252z"/>
				<g>
					<path style="fill:#7592CA;" d="M122.76,263.804c-1.294,7.175-2.596,14.358-3.89,21.533c-1.411,7.81-2.839,15.691-5.905,23.008
						c-0.808,1.929-1.725,3.811-2.745,5.63c-1.898,3.38-4.14,6.548-6.705,9.457c-1.176,1.333-2.376,2.729-3.874,3.717
						c-0.949,0.635-2.054,1.004-2.972,1.678c-1.247,0.918-2.125,2.321-2.76,3.866c-0.62,1.498-1.004,3.145-1.302,4.595
						c-0.047,0.235-0.094,0.455-0.133,0.674c-0.306,1.584-0.502,3.192-0.635,4.799c-0.031,0.463-0.063,0.925-0.094,1.388
						c-0.078,1.396-0.118,2.799-0.149,4.195c-0.4,0-0.8-0.008-1.2-0.008H90.06c-0.039-1.38-0.008-2.776,0.086-4.18
						c0.141-2.235,0.431-4.485,0.784-6.736c0.008-0.047,0.008-0.086,0.016-0.133c0.251-1.6,0.525-3.199,0.792-4.791
						c0.408-2.345,0.792-4.689,1.074-7.01c0.753-6.336,0.667-12.735,0.494-19.103c-0.055-1.96,0.133-3.662,0.494-5.45
						c0.18-0.894,0.4-1.804,0.659-2.784c1.694-6.422,3.984-12.696,6.799-18.718c2.823-6.015,6.179-11.786,10.029-17.197
						c1.929-2.713,3.976-5.332,6.14-7.85c1.2-1.404,2.439-2.768,3.717-4.101c0.235-0.251,2.329-2.039,2.329-2.36
						C124.657,253.132,123.709,258.558,122.76,263.804z"/>
					<path style="fill:#9BBDEA;" d="M93.91,332.694c-0.063,3.819-0.157,7.646-0.282,11.465c-0.047,1.396-0.094,2.784-0.149,4.18
						c-0.18,0.008-0.368,0.008-0.549,0.008h-1.333c-0.4,0-0.8-0.008-1.2-0.008l0.322-4.18l0.125-1.56
						c0.118-1.702,0.149-3.396,0.11-5.074c0-0.078,0-0.157-0.008-0.235c-0.094-3.646-0.525-7.246-1.2-10.814
						c-3.09-16.444-11.316-32.269-15.699-48.689c-3.748-14.029-4.689-28.646-5.105-43.161C78.297,245,87.37,256.3,91.009,269.787
						c1.843,6.814,2.211,13.927,2.478,20.977c0.126,3.388,0.235,6.783,0.314,10.171C94.059,311.521,94.098,322.107,93.91,332.694z"
						/>
					<path style="fill:#9BBDEA;" d="M93.267,346.425l-0.337,1.921h-0.682c-0.031-1.404-0.118-2.799-0.259-4.195
						c-0.039-0.463-0.086-0.925-0.149-1.388c-0.102-0.925-0.235-1.851-0.384-2.776c-0.133-0.823-0.29-1.655-0.502-2.462
						c-0.008-0.039-0.016-0.071-0.023-0.102c-0.227-0.878-0.518-1.741-0.91-2.564c-2.18-4.58-7.12-7.144-11.966-8.642
						c-4.838-1.498-9.975-2.282-14.39-4.76c-3.968-2.227-7.089-5.685-10.053-9.143c-3.113-3.639-6.14-7.348-9.081-11.135
						c8.704,1.545,17.471,3.246,25.517,6.901c8.046,3.654,15.401,9.481,19.259,17.432c0.157,0.321,0.306,0.643,0.439,0.965
						c0.863,1.937,1.514,3.96,1.992,6.022c0.384,1.576,0.666,3.176,0.87,4.791c0.306,2.274,0.478,4.572,0.572,6.862
						C93.22,344.911,93.243,345.672,93.267,346.425z"/>
				</g>
			</g>
		</g>
	</g>
</g>
<g id="OBJECTS">
	<g>
		<path style="fill:#CADCF4;" d="M306.558,466.699c7.592,1.154,14.159,4.39,21.578,5.984c10.38,2.231,21.825,1.131,32.184,3.405
			c2.677,0.587,6.086,1.867,6.638,3.945c0.559,2.106-1.191,3.941-4.1,4.586c-11.551,2.56-24,2.16-36.129,1.733
			c-5.505-0.194-11.012-0.374-16.516-0.581c-5.513-0.207-9.834-2.446-14.746-4.016c-5.858-1.872-12.607-1.712-18.979-2.472
			c-4.51-0.538-8.896-1.553-12.955-2.998c-2.441-0.869-5.105-2.425-4.412-4.246c1.194-3.127,10.629-3.746,14.537-4.208
			c2.84-0.336,5.705-0.574,8.58-0.713c1.312-0.063,2.678-0.026,3.96-0.247c0.831-0.144,1.59-0.385,2.447-0.47
			C294.309,465.837,300.969,465.85,306.558,466.699z"/>
		<path style="fill:#CADCF4;" d="M204.36,461.765c-2.292-0.204-4.609-0.232-6.875-0.56c-1.765-0.255-3.307-1.138-5.106-1.297
			c-4.425-0.393-8.743-0.05-13.02,1.142c-3.164,0.882-4.997-1.414-6.98-3.472c-2.431-2.523-5.738-5.185-9.311-5.622
			c-2.036-0.249-3.924,0.142-5.77,1.02c-2.153,1.025-4.061,2.467-6.042,3.777c-1.767,1.169-3.578,1.898-5.474,2.783
			c-0.859,0.401-1.622,0.691-2.547,0.95c-1.973,0.551-3.969,1.324-5.421,2.825c-1.919,1.982-2.331,5.673-0.1,7.296
			c0.777,0.566,1.743,0.799,2.69,0.97c2.482,0.449,5.111,0.075,7.539,0.672c2.188,0.539,4.173,0.72,6.448,0.74
			c5.844,0.05,11.683-0.275,17.517-0.578c1.62-0.084,3.24-0.167,4.86-0.24c1.387-0.062,2.817-0.109,4.12,0.368
			c1.505,0.551,2.683,1.741,4.101,2.489c2.038,1.074,4.431,1.172,6.733,1.248c10.193,0.333,20.763,0.599,30.148-3.391
			c1.916-0.815,4.079-2.451,3.556-4.466c-0.374-1.442-1.953-2.165-3.361-2.655c-5.285-1.838-10.759-3.127-16.308-3.848
			C205.294,461.856,204.828,461.807,204.36,461.765z"/>
		<g>
			<g>
				<path d="M175.191,89.497c-1.46-0.906-2.446-2.534-2.573-4.247c-0.127-1.713,0.608-3.469,1.918-4.58
					c0.19-1.484,1.772-2.634,3.243-2.358c1.421-1.798,3.604-3.488,5.806-2.852c0.563,0.163,1.081,0.471,1.655,0.59
					c1.196,0.249,2.418-0.356,3.637-0.27c0.996,0.07,1.945,0.632,2.486,1.471c0.234,0.362,0.41,0.789,0.772,1.023
					c0.553,0.359,1.276,0.126,1.934,0.067c2.214-0.198,4.223,2.237,3.609,4.373c0.532-0.384,1.331-0.1,1.718,0.429
					c0.387,0.529,0.466,1.216,0.515,1.87c0.119,1.585,0.126,3.228-0.472,4.7c-0.598,1.472-1.929,2.743-3.515,2.84L175.191,89.497z"
					/>
				<path style="fill:#A37557;" d="M169.291,113.103c-1.104-2.534-4.297-3.798-4.433-1.07c-0.136,2.729,1.226,11.132,3.951,9.524
					C171.534,119.95,169.291,113.103,169.291,113.103z"/>
				<path style="fill:#906347;" d="M202.647,113.103c1.104-2.534,4.297-3.798,4.433-1.07c0.136,2.729-1.226,11.132-3.951,9.524
					C200.404,119.95,202.647,113.103,202.647,113.103z"/>
				<g>
					<path style="fill:#E8EEF5;" d="M207.924,472.1c-0.368,0-2.242,0.014-4.75,0.029c-6.321,0.036-16.65,0.086-16.996-0.029
						c-0.483-0.166-1.932-2.739-0.807-5.637c0.699-1.802,2.083-5.024,3.417-7.597c0.814-1.579,1.607-2.905,2.22-3.518l13.104-1.975
						l2.198-0.332c0,0,0.267,0.699,0.649,1.809c0.721,2.112,1.831,5.716,2.256,8.909C209.855,468.625,209.214,472.1,207.924,472.1z"
						/>
					<path style="fill:#ADC1DB;" d="M207.924,472.1c-0.368,0-2.242,0.014-4.75,0.029c0.706-2.653,0.728-5.493,0.036-8.152
						c-0.223-0.865-0.533-1.737-1.117-2.422c-0.584-0.678-1.398-1.117-2.22-1.485c-3.453-1.528-7.388-1.946-11.086-1.204
						c0.814-1.579,1.607-2.905,2.22-3.518l13.104-1.975c0.267,0.115,0.541,0.231,0.807,0.36c0.699,0.332,1.384,0.699,2.04,1.117
						c0.721,2.112,1.831,5.716,2.256,8.909C209.855,468.625,209.214,472.1,207.924,472.1z"/>
					<path style="fill:#E8EEF5;" d="M169.426,438.914c-0.483,6.444,2.249,9.024,1.124,13.212c-0.822,3.063-3.712,7.669-7.158,9.868
						c-1.269,0.807-2.616,1.29-3.957,1.247c-4.995-0.166-7.251-1.132-8.859-5.802c-1.615-4.671-1.773-13.529,0-17.234
						c0.742-1.55,1.593-3.719,2.335-5.723c1.038-2.782,1.852-5.233,1.852-5.233l15.627-16.427c0,0,3.863,5.961,2.415,12.08
						C171.358,431.022,169.909,432.47,169.426,438.914z"/>
					<path style="fill:#ADC1DB;" d="M169.426,438.914c-0.483,6.444,2.249,9.024,1.124,13.212c-0.822,3.063-3.712,7.669-7.158,9.868
						c0.231-1.117,0.469-2.443,0.512-2.652c0.18-0.952,0.432-1.961,0.375-2.934c-0.029-0.584-0.238-1.132-0.332-1.708
						c-0.303-1.989,0.13-4.231,0.202-6.235c0.173-4.469,0.195-8.945,0.065-13.414c-0.007-0.432-0.079-0.959-0.476-1.132
						c-0.209-0.094-0.461-0.058-0.685-0.007c-1.305,0.288-2.652,0.858-4.007,0.678c-2.025-0.267-4.08-0.18-6.134-0.108
						c1.038-2.782,1.852-5.233,1.852-5.233l15.627-16.427c0,0,3.863,5.961,2.415,12.08
						C171.358,431.022,169.909,432.47,169.426,438.914z"/>
					<path style="fill:#8CA8D8;" d="M220.205,284.299c-0.49,4.115-1.65,14.682-1.409,22.311c0.266,8.746-2.654,33.316-2.423,47.474
						c0.009,0.103,0.009,0.206,0.009,0.309c0.026,1.375,0.086,2.638,0.18,3.78c0.043,0.481,0.069,1.005,0.094,1.572
						c0.61,14.536-4.072,55.232-6.967,69.287c-3.007,14.605,0,31.572,0,31.572s-4.545-1.607-9.201-2.594
						c-1.246-0.275-2.509-0.49-3.686-0.627c-2.277-0.266-5.223,0.009-7.921,0.43c-3.153,0.481-5.962,1.16-6.95,1.409
						c0.017-0.292-0.069-0.893-0.378-2.053c-0.859-3.222,0-28.565,0-39.519s-0.859-43.385-1.933-50.473
						c-1.074-7.088-1.718-61.426-1.718-61.426s-0.43,5.799-1.014,11.383c-0.584,5.584-0.49,23.196-0.06,33.076
						c0.429,9.88-1.718,7.732-1.555,12.672c0.163,4.94-0.378,26.203-0.034,27.706c0.335,1.503-1.847,8.806-0.344,12.887
						c1.503,4.081-2.148,15.249-7.947,21.907c-0.885,1.014-2.053,1.916-3.393,2.689c-7.431,4.287-20.163,4.785-19.802,0.962
						c0.404-4.253,4.63-24.734,4.751-28.325c0.009-0.215,0-0.369-0.026-0.455c-0.43-1.503-6.658-37.371-7.552-43.385
						c-0.893-6.014,0-13.101,0-13.101s-0.095-0.18-0.232-0.524c-0.516-1.22-1.692-4.424-1.804-8.282
						c-0.017-0.49,0.009-0.988,0.052-1.504c0.344-3.978,2.242-8.608,1.95-13.007c-0.043-0.756-0.163-1.503-0.361-2.242
						c-1.503-5.584-3.29-41.916-3.29-41.916l28.119,2.113l54.837,4.132l0.232,0.017
						C220.429,282.555,220.343,283.199,220.205,284.299z"/>
					<g>
						<path style="fill:#7592CA;" d="M185.783,448.234c0.058-0.358,0.06-0.726-0.029-1.078l-0.004-0.248
							c-0.044,0.096-0.083,0.194-0.122,0.292C185.674,447.552,185.727,447.895,185.783,448.234z"/>
						<path style="fill:#7592CA;" d="M220.205,284.299c0-0.636,0-1.22-0.009-1.761c-0.009-1.967-0.026-3.222-0.026-3.222
							l-54.811-0.911l-27.715-0.455c5.526,3.791,11.051,7.582,16.577,11.373c2.653,1.82,5.306,3.641,7.96,5.461
							c1.164,0.798,2.517,1.527,3.483,2.581c0.481,0.525,0.708,1.134,1.029,1.754c0.459,0.887,1.153,1.588,1.751,2.378
							c2.67,3.53,4.113,7.874,4.674,12.23c0.09,0.703,0.158,1.408,0.203,2.115c0.405,6.327-0.787,12.632-1.837,18.884
							c-0.49,2.915-0.94,5.972,0.004,8.773c0.511,1.516,1.412,2.888,1.813,4.436c0.933,3.611-0.988,7.254-2.063,10.825
							c-0.697,2.316-1.093,4.797-1.014,7.22c0.048,1.464-0.18,2.147-1.066,3.261c-0.231,0.29-0.442,0.586-0.643,0.898
							c-0.37,0.574-0.714,1.12-1.171,1.634c-1.369,1.541-2.381,3.198-3.306,5.038c-1.311,2.606-2.589,5.338-2.688,8.253
							c-0.066,1.948,0.401,3.871,0.865,5.764c1.393,5.686,2.787,11.372,4.181,17.058c0.669,2.731,1.338,5.498,1.429,8.321
							c0.037,1.164,0.157,2.803-0.387,3.871c-0.472,0.926-1.254,1.939-1.915,2.741c-1.235,1.498-1.459,3.422-1.968,5.251
							c1.34-0.773,2.509-1.675,3.393-2.689c5.799-6.658,9.45-17.827,7.947-21.907c-1.503-4.081,0.679-11.383,0.344-12.887
							c-0.344-1.503,0.198-22.766,0.034-27.706c-0.163-4.94,1.985-2.792,1.555-12.672c-0.43-9.88-0.524-27.491,0.06-33.076
							c0.584-5.584,1.014-11.383,1.014-11.383s0.644,54.339,1.718,61.426c1.074,7.088,1.933,39.519,1.933,50.473
							s-0.859,36.297,0,39.519c0.309,1.159,0.395,1.76,0.378,2.053c0.01-0.178,3.005-0.69,3.241-0.738
							c1.251-0.258,2.673-0.303,3.88-0.707c0.318-0.106,0.656-0.19,0.801-0.528c0.271-0.631-0.452-1.55-0.742-2.051
							c-1.487-2.569-1.482-4.924-1.2-7.847c0.157-1.629,0.603-3.83,2.518-4.177c0.393-0.071,1.487,0.115,1.733-0.24
							c0.057-0.083,0.024-0.464,0.047-0.584c0.052-0.278,0.073-0.57,0.094-0.852c0.068-0.917,0.002-1.785-0.319-2.651
							c-1.504-4.054-3.844-7.679-4.84-11.912c-0.568-2.419-0.658-4.952-0.238-7.402c1.394-0.385,2.702,0.445,3.693,1.345
							c0.991,0.9,1.924,1.829,3.054,2.574c1.949,1.284,4.008-0.641,3.94-2.819c-0.041-1.32-0.695-2.532-1.333-3.688
							c-0.876-1.589-1.753-3.177-2.629-4.766c-1.386-2.513-2.72-5.064-4.162-7.545c-0.23-0.396-0.47-0.757-0.778-1.097
							c-0.471-0.52-0.902-0.891-1.118-1.587c-0.605-1.955-0.145-4.345,0.869-6.079c0.975-1.668,2.52-2.959,3.419-4.669
							c0.301-0.573,0.474-1.391-0.047-1.776c-0.42-0.31-1.01-0.116-1.491,0.088c-1.362,0.578-2.724,1.156-4.085,1.733
							c-0.635-1.416,1.047-2.398,0.823-3.821c-0.13-0.827-0.605-1.093-1.129-1.629c-0.54-0.551-0.215-1.484,0.234-2.11
							c0.45-0.626,1.031-1.29,0.92-2.053c-0.05-0.345-0.241-0.651-0.427-0.946c-0.611-0.966-1.221-1.932-1.831-2.898
							c-0.396-0.626-1.319-1.633-0.924-2.436c0.366-0.743,1.173-0.406,1.756-0.131c0.676,0.318,1.439,1.045,2.192,1.145
							c0.301,0.04,0.401,0.069,0.628-0.134c0.131-0.117,0.065-0.443,0.084-0.58c0.267-1.976-0.221-4.413-0.553-6.35
							c-0.767-4.482-2.332-8.785-3.425-13.189c-1.322-5.326-1.941-10.787-1.114-16.246c1.993-13.213-1.615-23.84,1.478-32.543
							c3.093-8.694,17.259-9.794,24.519-11.177c7.251-1.383,7.543,9.433,9.33,10.464
							C218.556,298.981,219.716,288.414,220.205,284.299z"/>
					</g>
					<path style="fill:#A37557;" d="M143.776,214.388c-0.6,5.169,0.685,4.655-0.447,11.823c-0.543,3.437-2.837,11.195-5.055,19.086
						c-2.389,8.491-4.693,17.135-4.617,20.695c0.086,3.665,1.485,6.682,2.799,8.977c0.267,0.476,0.533,0.914,0.79,1.323
						c0.371,0.628,0.714,1.19,0.98,1.666c0.114,0.219,0.219,0.409,0.295,0.59c0.124,0.276,0.2,0.524,0.219,0.733
						c0.009,0.257,0.028,0.581,0.038,0.952c0.057,2.361-0.143,6.692-0.286,8.148c-0.048,0.562-0.067,1.352-0.124,2.104
						c-0.038,0.628-0.105,1.238-0.238,1.704c-0.181,0.628-0.476,0.98-0.999,0.704c-1.38-0.724-1.694-2.18-1.618-3.817
						c0.076-1.647-0.314-3.922-0.476-5.597c-0.171-1.694-1.456-1.618-1.856,0.238c-0.409,1.847-0.885,8.377-0.885,8.377
						s2.008,2.085,4.16,2.17c0.733,0.029,1.38,0.238,1.847,0.523c0.904,0.543,1.171,1.333,0.266,1.485
						c-0.057,0.009-0.114,0.029-0.171,0.038c-0.6,0.133-0.971,0.409-1.466,0.638c-0.505,0.219-1.123,0.409-2.227,0.371
						c-2.247-0.076-3.608-0.781-3.608-0.781s-0.305,0.095-0.762,0.162c-0.581,0.105-1.371,0.171-2.037-0.019
						c-0.162-0.038-0.314-0.095-0.457-0.171c-0.371-0.095-0.695-0.209-0.98-0.333c-1.742-0.723-2.056-1.837-2.056-1.837
						s-0.143,0.019-0.343-0.019c-0.076-0.029-0.171-0.057-0.276-0.095c-0.267-0.095-0.6-0.305-0.914-0.695
						c-0.723-0.885-2.17-3.941-2.332-7.158c-0.171-3.227,1.609-9.186,1.771-13.203c0.086-2.094,0.552-7.977,1.038-14.936
						c0.01-0.009,0.01-0.029,0-0.038c0.447-6.473,0.904-13.86,1.057-19.99c0.324-12.718,5.312-25.607,5.797-28.51
						c0.343-2.037,0.6-9.472,0.723-13.708c0.01-0.247,0.01-0.485,0.019-0.714c0.038-1.399,0.067-2.304,0.067-2.304l6.188,4.112
						l0.647,0.438l7.901,5.245c0,0-0.352,1.266-0.79,3.122c-0.543,2.342-1.237,5.607-1.58,8.482
						C143.776,214.369,143.776,214.378,143.776,214.388z"/>
					<path style="fill:#906347;" d="M143.324,226.206c-1.126,7.165-9.82,32.938-9.665,39.785c0.163,6.847,4.914,11.435,5.077,13.29
						c0.163,1.856-0.077,7.414-0.241,9.098c-0.051,0.567-0.069,1.349-0.129,2.105c-0.112-0.361-0.198-0.739-0.266-1.1
						c-0.739-3.797-0.988-7.998-3.591-10.868c-0.559-0.61-1.229-1.057-1.735-1.71c-0.516-0.653-0.971-1.349-1.366-2.079
						c-0.765-1.426-1.306-2.981-1.649-4.562c-0.593-2.715-0.627-5.524-0.438-8.299c0.069-1.074,0.172-2.148,0.309-3.222
						c0.172-1.357,0.576-2.56,0.876-3.9c2.388-10.722,4.785-21.435,7.182-32.156c0.593-2.637,1.177-5.284,1.392-7.973
						c0.464-5.799-0.816-11.572-2.096-17.242l0.61-0.292l8.548,5.687c0,0-1.77,6.443-2.363,11.615
						C143.178,219.556,144.458,219.041,143.324,226.206z"/>
					<path style="fill:#A37557;" d="M245.618,295.716c0.077,2.174-0.241,3.78-0.326,4.424c-0.043,0.387-0.679,0.833-1.168,1.134
						c-0.335,0.189-0.602,0.318-0.602,0.318s-0.378,0.404-0.945,0.936c0,0.009,0,0.009-0.008,0.009
						c-0.79,0.739-1.933,1.744-2.878,2.259c-0.318,0.172-0.61,0.292-0.859,0.327c-0.017,0-0.043,0.009-0.06,0.009
						c-0.911,0.833-1.804,1.237-2.474,1.435c-0.696,0.198-1.151,0.18-1.151,0.18c-0.198,0.163-0.387,0.318-0.567,0.455
						c-2.062,1.684-2.637,2.096-3.574,1.057c-0.017-0.017-0.034-0.034-0.051-0.06c-1.04-1.211-0.241-2.741,0.808-3.711
						c1.289-4.751,1.77-6.28,1.77-6.28s-0.077-4.588-0.722-6.443c-0.644-1.847-1.692-3.703-1.692-3.703s-1.134,4.751-0.644,7.406
						c0.481,2.663,0.241,5-1.452,5.481c-1.684,0.481-1.04-1.529-1.366-3.462c-0.318-1.933-1.34-6.684-0.627-11.28
						c0.704-4.588,3.926-10.868,4.012-15.464c0.077-4.588-8.213-36.967-9.665-42.844c-1.452-5.885-2.577-18.978-2.577-18.978
						s5.043-2.594,9.717-4.914c3.9-1.959,7.543-3.729,7.758-3.651c0,0-0.172,1.813-0.318,4.261c-0.043,0.79-0.086,1.641-0.12,2.526
						c-0.12,3.342-0.103,7.062,0.438,8.995c1.125,4.029,3.385,9.665,3.866,20.137c0.481,10.473,0.807,37.079,1.452,41.736
						c0.644,4.656,2.741,9.089,3.54,11.065C245.936,291.043,245.532,293.534,245.618,295.716z"/>
					<path style="fill:#906347;" d="M234.149,303.809c-0.713,1.675-1.684,3.514-3.144,4.45c-0.017-0.017-0.034-0.034-0.051-0.06
						c-1.04-1.211-0.241-2.741,0.808-3.711c1.289-4.751,1.77-6.28,1.77-6.28s-0.077-4.588-0.722-6.443
						c-0.644-1.847-1.692-3.703-1.692-3.703s-1.134,4.751-0.644,7.406c0.481,2.663,0.241,5-1.452,5.481
						c-1.684,0.481-1.04-1.529-1.366-3.462c-0.318-1.933-1.34-6.684-0.627-11.28c0.704-4.588,3.926-10.868,4.012-15.464
						c0.077-4.588-8.213-36.967-9.665-42.844c-1.452-5.885-2.577-18.978-2.577-18.978s5.043-2.594,9.717-4.914l7.44,0.61
						c-0.043,0.79-0.086,1.641-0.12,2.526c-3.024,3.179-5.773,6.658-6.684,10.894c-0.979,4.579,0.361,9.296,1.426,13.857
						c0.962,4.15,1.701,8.342,2.217,12.569c0.421,3.454,0.687,6.924,0.954,10.387c0.258,3.428,0.524,6.856,0.79,10.284
						c0.241,3.239,0.49,6.486,0.206,9.717c-0.266,2.964-0.971,5.919-0.661,8.874c0.369,3.436,2.105,6.632,2.371,10.086
						C236.709,297.254,235.489,300.63,234.149,303.809z"/>
					<path style="fill:#8CA8D8;" d="M220.805,248.514c4.35,9.833,2.741,38.334,2.741,38.334s-36.078,4.998-46.387,0
						c-0.171-0.076-0.324-0.152-0.486-0.219c-5.664-2.656-12.861-4.369-20.562-5.34c-6.311-0.809-12.965-1.114-19.391-1.047
						c-1.285-7.082,2.418-50.576,4.836-59.114c2.408-8.529,4.836-12.242,4.674-13.527c-0.171-1.295,1.447-4.35-3.551-14.631
						c-0.552-1.142-1.009-2.542-1.371-4.122c-2.009-8.815-1.123-23.341,0.666-31.994c0.371-1.828,0.79-3.389,1.238-4.579
						c0.447-1.247,0.923-2.085,1.409-2.399c3.398-2.228,13.736-3.684,25.864-7.511c0.524-0.171,1.057-0.343,1.59-0.514l19.077,0.999
						l10.395,0.552c0,0,4.227,1.666,9.224,3.884c7.101,3.141,15.783,7.396,16.164,9.576c0.638,3.703-2.104,16.107-3.865,27.054
						c-0.352,2.123-0.742,4.845-1.152,7.93c-1.666,12.803-3.503,31.68-2.722,38.305c0.105,0.895,0.162,1.694,0.171,2.418
						c0.01,1.038-0.048,1.923-0.143,2.722c-0.39,3.475-1.38,5.502,0.686,11.061C220.158,247.02,220.462,247.734,220.805,248.514z"/>
					<path style="fill:#7592CA;" d="M219.2,230.149c0.249,2.156,0.18,3.763,0.026,5.146c-2.225-5.086-4.287-10.292-4.785-15.799
						c-0.112-1.241-0.013-1.985-0.615-2.98c-0.415-0.686-0.799-1.385-1.244-2.053c-0.869-1.306-1.847-2.54-2.922-3.683
						c-0.182-0.194-0.372-0.389-0.609-0.508c-0.34-0.171-0.737-0.17-1.117-0.157c-3.078,0.106-6.136,0.764-8.985,1.934
						c-0.286-0.464,0.165-1.022,0.577-1.378c2.695-2.326,5.391-4.653,8.086-6.979c1.348-1.163,2.699-2.322,4.043-3.49
						c0.965-0.838,1.541-1.886,2.582-2.659c2.562-1.902,5.127-3.799,7.687-5.702C220.257,204.651,218.418,223.525,219.2,230.149z"/>
					<path style="fill:#8CA8D8;" d="M181.554,459.316c0,0,0.137-0.034,0.378-0.094C181.906,459.754,181.554,459.316,181.554,459.316
						z"/>
					<path style="fill:#7592CA;" d="M181.554,459.316c0,0,0.137-0.034,0.378-0.094C181.906,459.754,181.554,459.316,181.554,459.316
						z"/>
					<path style="fill:#86593F;" d="M196.232,139.801c-1.611-2.577,0.648-9.872,0.648-9.872l-19.183-1.121
						c6.771,10.077,10.816,21.181,14.963,32.283c4.905-6.855,9.872-14.263,9.625-15.83
						C201.801,142.201,197.843,142.378,196.232,139.801z"/>
					<path style="fill:#906347;" d="M192.662,161.094c-4.673,6.521-9.287,12.551-9.287,12.551s-5.67-11.417-9.613-19.931
						c-0.421-0.902-0.816-1.77-1.186-2.594c-1.357-3.007-2.337-5.344-2.509-6.186c-0.644-3.222,3.754-3.806,5.172-5.636
						c0.052-0.069,0.103-0.137,0.137-0.206c1.332-2.071,0.704-6.753,0.284-9.072c-0.146-0.825-0.266-1.349-0.266-1.349l1.143,0.069
						l0.369,0.026l0.791,0.043C184.466,138.886,188.513,149.986,192.662,161.094z"/>
					<path style="fill:#A37557;" d="M175.377,139.092c1.332-2.071,0.704-6.753,0.284-9.072c0.198-0.498,0.472-0.937,0.876-1.28
						c0.103-0.103,0.223-0.189,0.352-0.266l0.017,0.292l0.284,4.27c0.009,4.484,0.017,8.969,0.017,13.445
						C176.09,144.17,175.592,141.661,175.377,139.092z"/>
					<path style="fill:#8CA8D8;" d="M146.136,176.454c-1.609,4.141-3.275,8.253-4.826,12.394c-1.437,3.808-2.789,7.634-3.941,11.537
						c-4.15-3.294-9.395-7.968-15.364-14.212c-0.352-0.371-0.704-0.742-1.066-1.123c2.846-3.151,15.364-21.275,22.275-32.775
						c0.504-0.838,0.971-1.637,1.409-2.399c0,0,0.048,0.771,0.133,2.132C145.004,156.235,145.584,166.192,146.136,176.454z"/>
					<path style="fill:#7592CA;" d="M137.365,200.387c5.75,4.566,9.372,6.451,9.829,6.085c0.417-0.333-0.286-15.481-1.062-30.02
						C143.039,184.396,139.78,192.229,137.365,200.387z"/>
					<path style="fill:#7592CA;" d="M217.587,212.433c0.098,0.294,8.309-2.933,15.703-6.483
						c-5.364-9.681-8.276-20.705-10.684-31.402C220.065,190.102,217.295,210.102,217.587,212.433z"/>
					<path style="fill:#8CA8D8;" d="M226.387,155.919c-0.535,0.074-2.109,8.389-3.781,18.628
						c2.408,10.697,5.32,21.721,10.684,31.402c4.755-2.284,9.174-4.701,10.876-6.403
						C244.165,199.546,230.957,163.947,226.387,155.919z"/>
					<path style="fill:#A37557;" d="M203.169,121.481c-0.455,1.881-1.71,4.579-3.376,7.208c0,0,0,0-0.009,0.009
						c-1.478,2.311-3.265,4.57-5.095,6.16c-3.892,3.376-13.041,3.376-16.941,0c-0.387-0.335-0.765-0.696-1.143-1.082
						c-3.462-3.54-6.572-9.098-7.328-12.294c-0.85-3.54-0.559-14.012-0.559-14.012c0-4.364,1.057-8.265,2.861-11.486
						c3.273-5.894,9.021-9.519,15.266-9.519c8.591,0,15.026,5.524,16.349,16.667c0.172,1.392,0.258,2.878,0.258,4.45
						C203.453,107.58,204.011,117.941,203.169,121.481z"/>
					<path style="fill:#AF8466;" d="M171.265,104.173c0.538-2.312,2.422-4.109,4.52-5.219c2.099-1.11,4.439-1.656,6.701-2.377
						c2.262-0.721,4.538-1.671,6.178-3.388c-3.552,0.076-7.096,0.487-10.571,1.227c-1.383,0.294-2.774,0.648-4.003,1.347
						c-1.229,0.698-2.294,1.785-2.689,3.142L171.265,104.173z"/>
					<path style="fill:#AF8466;" d="M176.606,133.775c-3.462-3.54-6.572-9.098-7.328-12.294c-0.85-3.54-0.559-14.012-0.559-14.012
						c0-4.364,1.057-8.265,2.861-11.486c-0.103,1.486,0.962,3.265,0.851,4.691C167.499,111.816,170.291,123.878,176.606,133.775z"/>
					<path style="fill:#906347;" d="M203.169,121.481c-0.455,1.881-1.71,4.579-3.376,7.208c0.807-2.259,1.108-4.716,1.34-7.122
						c0.627-6.435,0.911-12.904,0.851-19.364c0.49,0.026,0.842,0.455,1.143,0.842c0.026,0.026,0.043,0.06,0.069,0.086
						c0.172,1.392,0.258,2.878,0.258,4.45C203.453,107.58,204.011,117.941,203.169,121.481z"/>
					<path style="fill:#906347;" d="M186.516,122.904c8.746-0.291-3.876-7.293,6.114-12.377c2.566-1.914,6.241,1.157,7.83-0.326
						c-3.018-2.822-7.611-2.571-11.256-1.162c-4.582,2.245-2.222,9.217-2.383,13.272L186.516,122.904z"/>
					<path style="fill:#906347;" d="M177.485,107.431c-2.05-0.121-4.194,0.96-5.081,2.812c0.461,0.927,1.706,1.168,2.72,0.961
						c1.014-0.207,1.943-0.737,2.962-0.921c0.968-0.175,1.959-0.069,2.831,0.392c0.494,0.261,0.967,0.562,1.414,0.898
						c0.223,0.168,0.44,0.345,0.649,0.53c0.081,0.072,0.566,0.431,0.556,0.53c0.061-0.59,0.069-1.185,0.023-1.776
						c-0.021-0.272-0.054-0.547-0.152-0.802c-0.215-0.559-0.718-0.94-1.26-1.156c-0.259-0.104-0.509-0.186-0.751-0.329
						c-0.5-0.295-1.082-0.415-1.632-0.585C179.005,107.748,178.293,107.479,177.485,107.431z"/>
				</g>
				<path d="M203.676,115.636c-0.068-1.263,0.315-2.501,0.693-3.708c0.078-0.248,0.156-0.496,0.233-0.745
					c0.096-0.306,0.192-0.614,0.339-0.898c0.163-0.316,0.392-0.622,0.399-0.977c0.007-0.333-0.185-0.636-0.249-0.963
					c-0.083-0.426,0.055-0.86,0.08-1.293c0.025-0.433-0.126-0.944-0.537-1.083c0.247-0.931,0.117-1.914-0.016-2.868
					c-0.097-0.7-0.194-1.4-0.292-2.1c-0.19-1.369-0.384-2.752-0.879-4.042c-0.106-0.275-0.226-0.549-0.26-0.842
					c-0.035-0.306,0.026-0.614,0.027-0.921c0.003-0.816-0.469-1.66-1.17-2.079c0.178-0.979-0.382-2.045-1.29-2.454
					c0.176-1.034-0.776-2.104-1.823-2.05c0.04-0.519-0.36-0.991-0.835-1.203c-0.475-0.212-1.013-0.221-1.533-0.227
					c-0.154-0.77-1.091-1.272-1.818-0.975c0.166-0.566-0.28-1.228-0.867-1.287c-0.261-0.026-0.533,0.049-0.782-0.032
					c-0.468-0.151-0.663-0.777-1.138-0.903c-0.309-0.082-0.624,0.079-0.94,0.131c-0.561,0.092-1.111-0.164-1.659-0.313
					c-0.548-0.149-1.209-0.193-1.552,0.26c-1.273-0.983-3.378-0.567-4.18,0.827c-0.211-0.501-0.855-0.709-1.382-0.575
					c-0.527,0.135-0.947,0.53-1.288,0.954c-0.722-0.645-2.043-0.368-2.445,0.512c-1.433-0.335-3.04,0.694-3.334,2.137
					c-0.472-0.233-1.067-0.004-1.415,0.39c-0.349,0.394-0.508,0.916-0.657,1.421c-1.081-0.172-2.017,0.914-1.739,1.973
					c-1.031,0.454-1.715,1.596-1.628,2.719c-1.026,1.049-1.45,2.649-1.079,4.068c-0.572,0.467-0.693,1.279-0.774,2.013
					c-0.113,1.027-0.226,2.055-0.339,3.082c-0.178,1.618-0.355,3.263-0.056,4.863c-0.317,0.903-0.331,1.913-0.179,2.85
					c0.058,0.357,0.289,0.732,0.43,1.064c0.327,0.769,0.653,1.538,0.98,2.308c0.344-1.277,0.505-2.919,0.425-4.239
					c-0.023-0.38-0.063-0.768,0.036-1.135c0.079-0.296,0.245-0.561,0.355-0.846c0.189-0.492,0.21-1.03,0.229-1.557
					c0.038-1.057,0.076-2.113,0.114-3.17c0.01-0.284,0.022-0.576,0.132-0.838c0.135-0.321,0.402-0.563,0.616-0.838
					c0.682-0.876,0.801-2.051,0.894-3.158c0.011-0.134,0.687-0.501,0.803-0.582c0.16-0.112,0.386-0.219,0.518-0.368
					c0.063-0.071,0.092-0.143,0.142-0.222c0.146-0.231,0.328-0.433,0.527-0.62c0.396-0.372,0.859-0.665,1.347-0.9
					c1.015-0.49,2.128-0.741,3.225-0.97c1.679-0.349,3.359-0.699,5.06-0.915c1.383-0.176,2.776-0.263,4.17-0.285
					c2.958-0.047,5.98,0.236,8.78,1.244c1.303,0.469,2.769,1.099,3.807,2.04c0.356,0.323,0.439,0.682,0.505,1.138
					c0.103,0.713,0.333,1.402,0.526,2.094c0.033,0.117,0.065,0.234,0.098,0.351c0.103,0.368,0.21,0.746,0.438,1.052
					c0.119,0.16,0.271,0.3,0.346,0.484c0.193,0.478-0.206,0.99-0.21,1.506c-0.005,0.635,0.583,1.148,0.619,1.782
					c0.036,0.626-0.465,1.302-0.126,1.83c0.122,0.189,0.336,0.315,0.417,0.524c0.169,0.433-0.312,0.83-0.439,1.278
					c-0.259,0.91,0.983,1.669,0.897,2.612c-0.037,0.414-0.175,1.053,0.24,1.059c-0.522,0.577-0.419,1.599,0.207,2.061
					L203.676,115.636z"/>
				<path style="fill:#906347;" d="M180.321,127.114c3.001,2.912,2.88,3.752,5.891,3.833c3.011,0.081,4.73-2.113,5.878-3.833
					C186.857,127.751,180.321,127.114,180.321,127.114z"/>
				<path style="fill:#86593F;" d="M179.644,126.762c4.099,2.233,8.576,3.402,13.018,0c-0.393,0.349-3.967-0.437-5.638,0.21
					c-0.565,0.219-1.036,0.003-1.622-0.126C183.237,126.369,179.88,127.031,179.644,126.762z"/>
				<g>
					<g>
						<path d="M179.059,113.035c0,0.428-0.187,0.805-0.498,1.06c-0.156,0.02-0.312,0.031-0.467,0.041
							c-0.384,0.02-0.758,0-1.132-0.051c-0.104-0.01-0.208-0.02-0.322-0.041c-0.27-0.255-0.436-0.611-0.436-1.009
							c0-0.774,0.633-1.406,1.422-1.406C178.426,111.629,179.059,112.261,179.059,113.035z"/>
						<path d="M196.232,112.998c0,0.459-0.218,0.856-0.561,1.121c-0.01,0-0.01,0-0.01,0c-0.104,0.01-0.208,0.02-0.311,0.031
							c-0.457,0.041-0.903,0.041-1.35,0.01c-0.374-0.245-0.623-0.673-0.623-1.162c0-0.774,0.633-1.406,1.433-1.406
							C195.599,111.591,196.232,112.223,196.232,112.998z"/>
					</g>
					<path d="M177.569,111.421c-0.998,0.029-2.524,0.692-2.524,0.692c-0.635,0.2-1.289,0.348-1.951,0.443
						c0.062,0.499,0.723,0.748,1.243,0.639c0.52-0.108,0.945-0.447,1.405-0.699c1.191-0.651,2.723-0.71,3.965-0.152
						c0.513,0.23,1.025,0.567,1.589,0.507C180.338,111.913,178.949,111.38,177.569,111.421z"/>
					<path d="M194.738,111.421c0.998,0.029,2.524,0.692,2.524,0.692c0.635,0.2,1.289,0.348,1.951,0.443
						c-0.062,0.499-0.723,0.748-1.243,0.639c-0.52-0.108-0.945-0.447-1.406-0.699c-1.191-0.651-2.723-0.71-3.965-0.152
						c-0.513,0.23-1.024,0.567-1.589,0.507C191.969,111.913,193.358,111.38,194.738,111.421z"/>
					<path d="M182.275,107.996c0.257,0.185,0.479,0.412,0.638,0.668c0.066,0.106,0.137,0.219,0.195,0.327
						c0.066,0.125,0.019,0.303-0.045,0.416c-0.11,0.196-0.327,0.314-0.56,0.379c-0.119,0.033-0.244,0.055-0.37,0.066
						c-0.18,0.016-0.378-0.101-0.531-0.173c-0.178-0.084-0.354-0.131-0.537-0.206c-0.884-0.363-1.81-0.658-2.766-0.798
						c-1.299-0.191-2.672-0.081-3.786,0.48c-0.725,0.365-1.404,0.93-2.256,0.884c0.161-0.181,0.322-0.362,0.482-0.543
						c0.754-0.849,1.542-1.723,2.641-2.208c1.513-0.669,3.372-0.491,5.045-0.058C181.081,107.399,181.741,107.613,182.275,107.996z"
						/>
					<path d="M190.031,107.996c-0.257,0.185-0.479,0.412-0.638,0.668c-0.066,0.106-0.137,0.219-0.195,0.327
						c-0.066,0.125-0.019,0.303,0.045,0.416c0.11,0.196,0.328,0.314,0.56,0.379c0.119,0.033,0.244,0.055,0.37,0.066
						c0.18,0.016,0.378-0.101,0.531-0.173c0.178-0.084,0.354-0.131,0.537-0.206c0.884-0.363,1.81-0.658,2.766-0.798
						c1.299-0.191,2.672-0.081,3.786,0.48c0.725,0.365,1.405,0.93,2.256,0.884c-0.161-0.181-0.321-0.362-0.482-0.543
						c-0.754-0.849-1.542-1.723-2.641-2.208c-1.513-0.669-3.372-0.491-5.045-0.058C191.226,107.399,190.566,107.613,190.031,107.996
						z"/>
					<path style="fill:#FFFFFF;" d="M177.632,112.684c0,0.201-0.163,0.364-0.364,0.364c-0.201,0-0.364-0.163-0.364-0.364
						c0-0.201,0.163-0.364,0.364-0.364C177.468,112.32,177.632,112.483,177.632,112.684z"/>
					<path style="fill:#FFFFFF;" d="M194.809,112.557c0,0.201-0.163,0.364-0.364,0.364c-0.201,0-0.364-0.163-0.364-0.364
						c0-0.201,0.163-0.364,0.364-0.364C194.646,112.193,194.809,112.356,194.809,112.557z"/>
				</g>
				<path style="fill:#AF8466;" d="M183.388,121.584c-0.039-0.29-0.02-0.585,0.046-0.869c0.084-0.359,0.242-0.699,0.45-1.003
					c0.17-0.249,0.397-0.565,0.693-0.672c0.268-0.097,0.598,0.038,0.815,0.199c0.302,0.225,0.307,0.588,0.361,0.923
					c0.07,0.434,0.124,0.891,0.014,1.324c-0.11,0.433-0.429,0.843-0.869,0.922c-0.228,0.041-0.457-0.011-0.671-0.089
					c-0.226-0.082-0.568-0.159-0.71-0.356C183.438,121.854,183.406,121.718,183.388,121.584z"/>
				<path style="fill:#AF8466;" d="M186.719,129.625c0.115,0.344-0.235,0.77-0.577,0.797c-0.504,0.038-1.99-0.13-1.778-0.96
					c0.036-0.141,0.153-0.208,0.285-0.245c0.419-0.117,0.915-0.084,1.333-0.028C186.281,129.228,186.623,129.339,186.719,129.625z"
					/>
				<path style="fill:#AF8466;" d="M188.202,129.319c0.176,0.128,0.235,0.464,0.119,0.652c-0.098,0.16-0.437,0.143-0.586,0.081
					c-0.275-0.115-0.248-0.511-0.058-0.689C187.816,129.233,188.048,129.206,188.202,129.319z"/>
				<path style="fill:#7B8EC5;" d="M166.567,148.177c1.396,6.551,10.434,25.485,10.64,25.468c0.206-0.017,9.919,0.627,10.325,0.627
					c0.406,0,2.016,0,2.016,0s14.295-19.437,15.792-23.625c-6.235,12.135-15.346,24.377-15.346,24.377l-13.389-0.537
					C176.606,174.488,166.614,152.798,166.567,148.177z"/>
				<path style="fill:#7592CA;" d="M173.137,198.237c2.602-0.82,5.155-1.961,7.878-2.114c5.658-0.318,10.701,3.63,16.322,4.351
					c4.626,0.593,9.21-1.036,13.632-2.516c1.238-0.414,2.964-0.629,3.517,0.553c0.533,1.14-0.632,2.309-1.656,3.04
					c-2.899,2.07-5.749,4.207-8.549,6.41c-1.665,1.31-3.285,2.695-5.002,3.915c-1.224,0.87-2.421,1.781-3.631,2.67
					c-0.811,0.596-1.704,1.35-1.688,2.356c0.007,0.46,0.214,0.895,0.472,1.277c1.029,1.522,2.945,2.507,3.334,4.302
					c0.054,0.248,0.055,0.553-0.15,0.704c-0.121,0.09-0.282,0.098-0.432,0.101c-2.916,0.046-5.709-1.074-8.409-2.176
					c-5.722-2.335-11.516-4.536-17.094-7.2c-0.28-0.134-0.56-0.269-0.839-0.404c-2.521-1.225-5.004-2.528-7.445-3.905
					c-1.226-0.692-2.473-1.734-3.846-2.124c-0.697-0.198-1.424-0.055-2.109-0.328c-0.991-0.394-1.798-1.244-2.384-2.112
					c-0.811-1.201-1.33-2.575-2.078-3.817c-0.357-0.593-0.836-1.275-0.608-2.001c0.156-0.499,0.511-0.798,1.03-0.763
					c0.541,0.036,1.087,0.325,1.611,0.456c0.799,0.201,1.617,0.347,2.431,0.476c3.267,0.517,6.608,0.56,9.888,0.131
					C169.298,199.26,171.244,198.833,173.137,198.237z"/>
				<path style="fill:#7592CA;" d="M219.913,246.352c-2.444-4.464-4.89-8.928-7.338-13.39c-0.591-1.077-1.182-2.154-1.773-3.231
					c-0.503-0.917-0.934-2.048-1.578-2.871c-0.185-0.236-0.417-0.367-0.638-0.565c-1.287-1.152-2.262-2.854-2.904-4.436
					c-0.155-0.381-0.268-0.879,0.039-1.154c0.245-0.22,0.623-0.163,0.944-0.09c1.696,0.386,3.374,0.852,5.027,1.397
					c1.145,0.378,2.309,0.812,3.197,1.626c1.68,1.541,2.033,3.975,3.134,5.885c0.42,0.728,1.035,1.394,1.236,2.227
					c0.271,1.123,0.097,2.413-0.032,3.545C218.831,238.766,217.843,240.793,219.913,246.352z"/>
				<path style="fill:#7592CA;" d="M178.988,231.436c1.318,0.863,2.643,1.732,3.794,2.808c1.154,1.078,2.111,2.346,3.063,3.606
					c10.166,13.464,20.339,26.939,29.672,40.993c0.883,1.329,1.797,2.827,1.559,4.405c-2.56-0.407-4.758-1.978-6.9-3.439
					c-1.317-0.899-2.867-1.667-4.059-2.722c-0.349-0.309-0.614-0.699-0.974-0.996c-0.59-0.487-1.337-0.806-2.005-1.171
					c-3-1.638-6.001-3.276-9.002-4.914c-2.319-1.266-4.968-2.572-7.493-1.793c-1.172,0.361-2.164,1.139-3.267,1.677
					c-1.102,0.538-2.479,0.812-3.516,0.156c-0.572-0.362-0.954-0.955-1.293-1.542c-1.713-2.958-2.837-6.212-4.047-9.41
					c-2.537-6.701-5.496-13.242-8.855-19.571c-4.141-7.802-8.956-15.461-10.734-24.113c1.443,0.736,2.842,1.558,4.187,2.46
					c0.616,0.413,1.339,0.819,1.854,1.356c0.847,0.882,1.74,1.423,2.87,2.017c1.126,0.592,2.272,1.086,3.242,1.927
					c0.788,0.683,1.51,1.409,2.368,2.011c1.442,1.01,2.947,1.94,4.42,2.905C175.578,229.203,177.283,230.32,178.988,231.436z"/>
				<path style="fill:#7592CA;" d="M209.69,244.814c1.659,1.577,3.289,3.188,4.804,4.906c0.936,1.061,1.51,2.212,2.249,3.407
					c0.81,1.31,1.485,2.702,2.015,4.148c1.05,2.862,1.535,5.934,1.384,8.98c-0.027,0.543-0.228,1.244-0.772,1.259
					c-0.29,0.008-0.534-0.203-0.744-0.402c-2.288-2.167-4.166-4.609-6.25-6.952c-0.659-0.741-1.538-1.145-2.264-1.801
					c-1.833-1.657-3.315-3.843-4.835-5.777c-2.292-2.917-4.48-5.914-6.56-8.986c-1.935-2.858-3.796-5.805-6.254-8.227
					c-3.267-3.219-7.727-5.748-8.976-10.161c1.312-0.133,2.531,0.631,3.62,1.374C195.109,232.038,202.669,238.141,209.69,244.814z"
					/>
				<path style="fill:#7592CA;" d="M176.674,286.627c-5.661-2.655-12.861-4.364-20.559-5.335c-0.876-4.656-1.967-9.27-3.247-13.832
					c-1.357-4.802-2.809-10.421,0.189-14.407C160.884,264.281,168.753,275.467,176.674,286.627z"/>
				<path style="fill:#7592CA;" d="M146.082,342.907c-2.577-1.65-4.21-4.39-5.739-7.036c-0.464-0.808-0.936-1.606-1.4-2.414
					c0.344-3.978,2.242-8.608,1.95-13.007c1.263,4.45,2.526,8.909,3.789,13.368C145.523,336.781,146.374,339.831,146.082,342.907z"
					/>
				<path style="fill:#7592CA;" d="M156.477,414.608c-0.017,1.366-0.679,3.273-2.002,2.912c-0.438-0.12-0.756-0.481-1.022-0.842
					c-2.629-3.514-2.698-8.247-3.797-12.5c-0.309-1.186-0.704-2.337-1.151-3.471c0.009-0.215,0-0.369-0.026-0.455
					c-0.43-1.503-6.658-37.371-7.552-43.385c-0.893-6.014,0-13.101,0-13.101s-0.095-0.18-0.232-0.524
					c2.869,3.6,4.923,7.835,5.945,12.311c1.246,5.455,1.048,11.366,3.72,16.28c1.134,2.096,2.758,3.909,3.746,6.074
					c1.16,2.534,1.392,5.378,1.572,8.153C156.305,395.561,156.571,405.089,156.477,414.608z"/>
				<path style="fill:#7592CA;" d="M164.483,367.853c0.326,2.098-0.799,4.29-2.173,5.817c-1.323,1.471-4.326,0.989-5.928,0.261
					c-1.027-0.467-1.717-1.159-2.508-1.928c-0.303-0.294-0.656-0.5-0.971-0.774c-0.506-0.44-1.9-2.974-1.739-3.012
					c3.816-0.906,7.72-1.442,11.639-1.599c0.426-0.017,0.893-0.017,1.223,0.253C164.313,367.104,164.427,367.488,164.483,367.853z"
					/>
				<path style="fill:#DBE4EF;" d="M216.382,354.393c-0.026-0.163-0.06-0.335-0.094-0.498l0.086,0.189
					C216.382,354.187,216.382,354.29,216.382,354.393z"/>
				<path style="fill:#7592CA;" d="M209.69,429.032c-3.007,14.605,0,31.572,0,31.572s-4.545-1.607-9.201-2.594
					c0.825-4.321,2.268-8.643,1.211-12.852c-1.048-4.15-4.459-7.655-4.442-11.933c0.017-2.758,1.461-5.266,2.406-7.852
					c1.025-2.794,1.697-5.885,1.316-8.856c-0.375-2.921-2.099-5.498-3.827-7.799c-2.153-2.868-4.555-5.831-4.952-9.396
					c-0.056-0.501-0.066-1.028,0.147-1.485c0.381-0.819,1.359-1.177,2.258-1.253s1.822,0.044,2.696-0.183
					c1.931-0.502,3.035-2.489,3.818-4.324c0.708-1.659,1.451-2.97,2.655-4.303c0.412-0.456,0.564-0.919,0.809-1.473
					c1.86-4.211,4.614-8.043,6.884-12.036c2.551-4.476,4.768-9.467,5.189-14.519C217.267,374.281,212.585,414.977,209.69,429.032z"
					/>
				<path style="fill:#7592CA;" d="M203.897,382.939c-0.105,1.949-1.446,3.222-2.64,4.601c-1.137,1.312-3.085,1.473-4.699,0.936
					c-0.77-0.256-1.491-0.682-2.058-1.265c-0.589-0.606-1.786-2.629-1.065-3.291c0.16-0.147,0.372-0.222,0.578-0.293
					c2.446-0.836,4.929-1.566,7.437-2.189c0.723-0.18,1.607-0.306,2.109,0.244C203.859,382.01,203.921,382.493,203.897,382.939z"/>
				<path style="fill:#906347;" d="M237.301,303.483c-0.283,1.039-0.593,2.096-1.005,3.084c-0.696,0.198-1.151,0.18-1.151,0.18
					c-0.198,0.163-0.387,0.318-0.567,0.455c1.065-2.122,2.096-4.287,2.629-6.598c0.301-1.254,0.455-2.586,1.108-3.703
					C238.427,299.127,237.886,301.335,237.301,303.483z"/>
				<path style="fill:#906347;" d="M239.69,304.797c-0.318,0.172-0.61,0.292-0.859,0.327c0.919-2.56,1.504-5.241,1.727-7.955
					C241.279,299.694,240.961,302.503,239.69,304.797z"/>
				<path style="fill:#906347;" d="M244.123,301.275c-0.335,0.189-0.602,0.318-0.602,0.318s-0.378,0.404-0.945,0.936
					c0.825-2.44,1.4-4.966,1.718-7.526C244.827,297.056,244.707,299.23,244.123,301.275z"/>
				<path style="fill:#906347;" d="M136.932,296.945c-0.507,0.223-1.125,0.412-2.225,0.378c-2.251-0.077-3.608-0.782-3.608-0.782
					s-0.309,0.095-0.765,0.163c-0.226,0.034-0.856-1.164-1.018-1.498c-0.126-0.258-0.274-0.499-0.405-0.754
					c-0.321-0.623-0.344-1.359-0.328-2.046c0.026-1.078,0.089-2.155,0.188-3.229c-0.058,0.63,0.129,1.381,0.241,1.999
					c0.125,0.685,0.291,1.363,0.499,2.028c0.204,0.654,0.458,1.287,0.724,1.918c0.218,0.518,0.731,0.765,1.24,0.99
					c1.108,0.49,2.337,0.593,3.54,0.687C135.661,296.842,136.296,296.893,136.932,296.945z"/>
				<path style="fill:#906347;" d="M124.458,294.316c-0.077-0.026-0.172-0.051-0.275-0.086c-0.198-0.661-0.404-1.323-0.601-1.984
					c-0.516-1.693-1.014-3.617-0.146-5.163C123.229,289.522,123.59,292.022,124.458,294.316z"/>
				<path style="fill:#906347;" d="M128.298,296.678c-0.163-0.034-0.318-0.094-0.455-0.172c-0.369-0.095-0.696-0.206-0.979-0.326
					c-1.1-2.251-1.383-4.897-0.756-7.328C125.858,291.61,126.657,294.445,128.298,296.678z"/>
				<path style="fill:#FFFFFF;" d="M176.253,88.326c0.469-0.965,1.703-1.48,2.719-1.134c1.079-1.116,2.786-1.578,4.281-1.159
					c0.201,0.056,0.417,0.127,0.613,0.054c0.151-0.056,0.258-0.186,0.373-0.299c0.821-0.81,2.121-0.797,3.272-0.732
					c0.581,0.033,1.214,0.087,1.64,0.485c0.906-0.703,2.395-0.444,3.01,0.523c0.307-0.513,1.081-0.511,1.605-0.223
					c0.524,0.288,0.911,0.774,1.41,1.103c0.436,0.287,0.947,0.446,1.381,0.736c0.434,0.29,0.802,0.782,0.714,1.296
					c-0.477-0.503-0.973-1.02-1.612-1.289c-0.639-0.269-1.465-0.224-1.926,0.294c-0.094-0.481-0.78-0.717-1.15-0.396
					c-0.527-1.044-1.947-1.524-2.999-1.014c-0.483,0.234-0.917,0.65-1.454,0.646c-0.201-0.002-0.395-0.064-0.59-0.112
					c-0.717-0.178-1.478-0.17-2.191,0.021c-0.465,0.125-0.923,0.329-1.404,0.31c-0.65-0.026-1.292-0.458-1.911-0.258
					c-0.359,0.116-0.623,0.424-0.966,0.582c-0.94,0.433-2.244-0.336-3.003,0.368c-0.212-0.551-1.174-0.525-1.356,0.036
					L176.253,88.326z"/>
				<path style="fill:#FFFFFF;" d="M175.724,80.741c0.092-0.976,1.193-1.719,2.132-1.441c0.376-0.356,1.045-0.33,1.393,0.054
					c0.113-1.007,0.765-1.937,1.673-2.387c0.464-0.23,0.978-0.338,1.488-0.428c0.34-0.061,0.686-0.115,1.031-0.09
					c0.977,0.069,1.806,0.757,2.406,1.532c-0.651-0.673-1.689-0.941-2.584-0.668c-0.896,0.273-1.608,1.074-1.773,1.995
					c0.218-0.282,0.522-0.516,0.874-0.57c0.215-0.033,0.434,0.002,0.648,0.046c0.584,0.118,1.168,0.3,1.649,0.651
					c0.481,0.351,0.848,0.895,0.874,1.49c-0.443-0.588-1.031-1.097-1.741-1.293c-0.71-0.196-1.548-0.022-2.014,0.548
					c-0.389-0.177-0.806-0.342-1.23-0.295c-0.424,0.047-0.847,0.378-0.849,0.805c-0.326-0.565-0.981-0.924-1.633-0.895
					c-0.652,0.03-1.272,0.446-1.545,1.039c-0.95-0.164-1.947,0.659-1.964,1.623L175.724,80.741z"/>
				<path style="fill:#FFFFFF;" d="M195.311,79.388c-0.646-0.399-1.566-0.384-2.106,0.149c-0.571-0.235-1.226-0.257-1.812-0.061
					c-0.161-0.451-0.331-0.916-0.665-1.259c-0.269-0.276-0.673-0.437-1.041-0.377c-0.227-0.469-0.705-0.822-1.229-0.854
					c-0.68-0.042-1.354,0.458-1.511,1.12c0.447-0.077,0.907-0.083,1.355-0.017c0.287,0.042,0.582,0.119,0.797,0.313
					c0.215,0.194,0.321,0.534,0.174,0.783c0.788,0.037,1.494,0.723,1.554,1.51c0.952-0.768,2.337-0.955,3.458-0.468
					c0.364-0.289,0.911-0.256,1.311-0.019c0.4,0.237,0.673,0.64,0.878,1.057C196.343,80.518,195.956,79.787,195.311,79.388z
					 M189.82,78.283c-0.006-0.055-0.021-0.108-0.034-0.162l0.199,0.114C189.929,78.249,189.87,78.252,189.82,78.283z"/>
			</g>
			<g>
				<g>
					<g>
						<path style="fill:#E8EEF5;" d="M326.894,482.709c-0.238,0.036-0.519,0.065-0.843,0.094
							c-4.505,0.425-16.708,0.663-18.813-0.094c-2.249-0.807-2.415-2.898-0.8-7.251c0.995-2.696,2.371-9.623,3.265-14.481
							c0,0,0,0,0.007,0c0.541-2.97,0.915-5.168,0.915-5.168c2.898-6.768,17.076-1.124,17.076-1.124s2.898,10.307,3.027,16.585
							C330.859,477.555,330.441,482.226,326.894,482.709z"/>
						<path style="fill:#ADC1DB;" d="M326.894,482.709c-0.238,0.036-0.519,0.065-0.843,0.094
							c-0.778-6.098,1.593-12.729-0.447-18.611c-0.389-1.117-0.959-2.22-1.903-2.926c-0.951-0.706-2.162-0.944-3.33-1.139
							c-3.59-0.598-7.561-0.923-10.661,0.851c0.541-2.97,0.915-5.168,0.915-5.168c2.898-6.768,17.076-1.124,17.076-1.124
							s2.898,10.307,3.027,16.585C330.859,477.555,330.441,482.226,326.894,482.709z"/>
						<path style="fill:#E8EEF5;" d="M295.641,447.757c-0.642,5.637-4.671,7.893-7.244,12.275c-2.58,4.375,0.8,8.34-1.449,10.92
							c-1.795,2.047-3.892,5.211-7.59,6.105c-0.951,0.231-2.018,0.303-3.207,0.173c-5.795-0.641-9.983-0.159-10.949-6.12
							c-0.966-5.961,2.256-11.439,4.022-14.661c0.887-1.615,2.256-5.031,3.402-8.051c1.153-3.02,2.076-5.637,2.076-5.637
							l19.007-5.961C293.709,436.801,296.289,442.113,295.641,447.757z"/>
						<path style="fill:#ADC1DB;" d="M295.641,447.757c-0.642,5.637-4.671,7.893-7.244,12.275c-2.58,4.375,0.8,8.34-1.449,10.92
							c-1.795,2.047-3.892,5.211-7.59,6.105c3.244-6.17,2.991-13.659,4.253-20.586c0.468-2.588,1.16-5.132,2.069-7.604
							c-4.332-0.468-8.7-0.627-13.054-0.468c1.153-3.02,2.076-5.637,2.076-5.637l19.007-5.961
							C293.709,436.801,296.289,442.113,295.641,447.757z"/>
						<path style="fill:#405598;" d="M341.482,383.478c0.43,7.517-4.081,13.531-4.51,26.203c-0.43,12.672-4.51,36.297-4.51,40.378
							c0,0.498,0.009,1.048,0.017,1.624c0.009,0.266,0.017,0.533,0.026,0.808c0.112,3.978,0.292,8.814-1.117,9.167
							c-1.718,0.43-5.799-4.081-12.242-5.155c-6.443-1.074-14.82,5.369-17.663,1.289c-2.191-3.144-2.38-5.653-2.775-12.612
							c-0.034-0.627-0.069-1.297-0.112-2.002c-0.094-1.615-0.206-3.445-0.361-5.524c-0.369-5.181-0.335-17.053-0.094-29.957
							c0.352-19.605,1.16-41.589,1.675-46.125c0.292-2.577,0.387-9.253,0.378-16.924c-0.009-14.734-0.378-33.118-0.378-33.118
							l1.667-27.277l42.139,1.289c0,0-3.643,15.034-3.857,25.988c-0.017,1.082-0.026,2.586-0.009,4.424c0,0.533,0,1.1,0.009,1.693
							c0,0.636,0.009,1.306,0.017,2.01c0.18,14.88,0.919,42.457,1.4,56.306C341.302,379.527,341.405,382.181,341.482,383.478z"/>
						<path style="fill:#4661AE;" d="M336.972,409.681c-0.43,12.672-4.51,36.297-4.51,40.378c0,0.498,0.009,1.048,0.017,1.624
							c-0.249-0.258-0.473-0.541-0.661-0.842c-1.057-1.649-1.357-3.66-1.529-5.61c-0.756-8.342,0.223-16.839,2.852-24.785
							c1.529-4.596,3.625-9.149,3.6-13.995c-4.124,3.866-7.99,8.016-11.555,12.397c-0.481-7.62,4.485-14.347,7.251-21.452
							c0.636-1.632,1.082-3.694-0.138-4.957c-0.472-0.49-1.151-0.765-1.598-1.289c-1.211-1.409-0.189-3.539,0.618-5.215
							c2.302-4.725,2.594-10.146,2.852-15.395c0.507-10.438,1.005-20.885,1.512-31.323c0.352-7.328,0.893-15.137,4.081-21.572
							c0,0.636,0.009,1.306,0.017,2.01c0.18,14.88,0.919,42.457,1.4,56.306c0.12,3.565,0.223,6.22,0.301,7.517
							C341.912,390.996,337.401,397.009,336.972,409.681z"/>
						<path style="fill:#4661AE;" d="M314.85,447.319c-3.05-1.271-5.919-2.964-8.514-5c-0.524-0.412-1.091-0.85-1.753-0.868
							c-0.601-0.017-1.151,0.327-1.632,0.687c-1.297,0.962-2.466,2.131-3.9,2.878c-0.112,0.06-0.223,0.112-0.344,0.163
							c-0.034-0.627-0.069-1.297-0.112-2.002c-0.094-1.615-0.206-3.445-0.361-5.524c-0.369-5.181-0.335-17.053-0.094-29.957
							l0.704-1.942c-0.146,7.5,2.551,14.768,5.876,21.486C308.054,433.96,312.066,440.36,314.85,447.319z"/>
						<path style="fill:#4661AE;" d="M303.193,364.879c-0.421,5.275-2.337,10.49-1.598,15.722c0.421,2.912,1.572,6.177-0.12,8.582
							c-0.61,0.851-1.512,1.461-2.105,2.32c-0.696,0.997-0.936,2.234-1.108,3.436c-2.234,15.936,4.433,32.595-0.163,48.016
							c-0.026,0.086-0.051,0.172-0.077,0.266c-0.094-1.615-0.206-3.445-0.361-5.524c-0.936-13.05,0.722-68.565,1.581-76.082
							c0.292-2.577,0.387-9.253,0.378-16.924C301.776,351.262,303.752,358.023,303.193,364.879z"/>
						<path style="fill:#4661AE;" d="M296.285,367.534c-0.653,1.71-0.799,3.024-0.636,4.201c0.223,1.692,1.082,3.093,2.027,4.966
							c0.516,1.014,1.048,2.156,1.512,3.557c1.933,5.799,4.347,51.392,1.125,56.22c-0.661,0.996-2.268,2.079-4.399,3.144
							c-8.239,4.107-24.45,7.921-25.722,5.232c-1.271-2.663-0.438-7.328-0.103-12.259c0.086-1.332,0.138-2.68,0.103-4.012
							c-0.103-4.132-0.283-13.488-0.619-19.82c-0.095-1.813-0.206-3.376-0.335-4.493c-0.095-0.928-0.215-1.555-0.335-1.778
							c-0.808-1.452-6.125-16.916-6.916-20.782c-0.481-2.302,0.12-8.136,0.653-12.758c0.052-0.447,0.103-0.876,0.155-1.297
							c0.292-2.534,0.524-4.502,0.473-4.948c-0.129-1.005-0.747-1.521-1.083-2.998c-0.094-0.412-0.163-0.911-0.198-1.512
							c-0.155-2.741,0.636-1.778,0-4.837c-0.619-2.972-1.727-6.718-0.137-7.938c0.043-0.052,0.086-0.077,0.137-0.112
							c1.228-0.782,1.598-1.641,1.813-4.055c0.077-0.739,0.129-1.632,0.189-2.715c0.017-0.498,0.043-1.031,0.077-1.607
							c0.326-5.962-4.184-48.969-4.184-49.459c0,0,1.246-0.017,3.308-0.043c2.706-0.043,6.813-0.095,11.34-0.146
							c11.907-0.12,26.752-0.198,26.752,0.189c0,0.644,0.816,2.139,0.705,3.711c-0.103,1.564,1.065,6.598-0.103,9.665
							c-1.16,3.058,1.332,35.593-0.765,45.421C299.025,356.099,298.381,362.061,296.285,367.534z"/>
						<path style="fill:#5972BE;" d="M276.078,409.707c-1.1-0.232-1.993-1.014-2.827-1.77c-1.34-1.211-2.698-2.423-4.012-3.668
							c-0.095-0.928-0.215-1.555-0.335-1.778c-0.808-1.452-6.125-16.916-6.916-20.782c-0.481-2.302,0.12-8.136,0.653-12.758
							c2.199,3.961,4.192,8.136,4.192,12.629c0,1.701-0.283,3.393-0.266,5.094C266.671,395.059,274.025,401.58,276.078,409.707z"/>
						<path style="fill:#5972BE;" d="M264.893,342.98c-0.223-0.137-0.361-0.369-0.481-0.601c-0.206-0.369-0.412-0.747-0.61-1.126
							c0.077-0.739,0.129-1.632,0.189-2.715c0.017-0.498,0.043-1.031,0.077-1.607c0.326-5.962-4.184-48.969-4.184-49.459
							c0,0,1.246-0.017,3.308-0.043c2.165,17.603,0.292,35.584,3.239,53.076C266.628,341.726,265.941,343.65,264.893,342.98z"/>
						<path style="fill:#405598;" d="M290.494,375.935c0.378-0.352,0.807-0.636,1.263-0.842l-2.285,1.976
							C289.815,376.743,290.159,376.365,290.494,375.935z"/>
						<path style="fill:#405598;" d="M296.285,367.534c-0.653,1.71-0.799,3.024-0.636,4.201c0.223,1.692,1.082,3.093,2.027,4.966
							c0.516,1.014,1.048,2.156,1.512,3.557c1.933,5.799,4.347,51.392,1.125,56.22c-0.661,0.996-2.268,2.079-4.399,3.144
							c-1.237-4.038-2.483-8.067-3.729-12.105c-1.332-4.339-2.672-8.703-3.17-13.204c-0.833-7.586,0.756-15.198,2.337-22.663
							c0.406-1.919,0.531-4.367,1.388-6.133c0.758-1.563,1.476-2.899,1.366-4.736c-0.092-1.532-0.874-3.098-2.254-3.77
							c-1.445-0.704-2.538-0.051-3.638,0.811c-0.836,0.655-1.906,0.865-2.494-0.367c-0.735-1.54-0.004-4.04,0.446-5.58
							c3.005-10.27,4.294-32.693,5.247-46.006c0.945-13.316-4.39-26.632-10.266-28.651c-5.876-2.019-19.768-7.569-19.768-7.569
							s5.601-1.031,13.153-2.363c11.907-0.12,26.752-0.198,26.752,0.189c0,0.644,0.816,2.139,0.705,3.711
							c-0.103,1.564,1.065,6.598-0.103,9.665c-1.16,3.058,1.332,35.593-0.765,45.421
							C299.025,356.099,298.381,362.061,296.285,367.534z"/>
						<path style="fill:#FFC8AE;" d="M376.792,303.762c0,0-1.409,6.203-2.406,8.943v0.009c-0.232,0.627-0.43,1.074-0.593,1.211
							c-0.421,0.369-0.893,0.636-1.254,0.799c-0.387,0.172-0.661,0.249-0.661,0.249s-0.12,0.773-1.332,1.143
							c-0.326,0.103-0.739,0.172-1.246,0.198c-0.043,0.051-0.095,0.094-0.146,0.137c-0.936,0.825-2.517,0.653-3.453,0.447
							c-0.464-0.095-0.773-0.206-0.773-0.206c-0.309,0.086-0.576,0.155-0.807,0.232c-1.907,0.55-1.718,0.627-3.419,0.627
							c-1.916,0-5.258-0.954-5.258-2.002c0-1.057,1.435-1.727,5.352-1.246c1.529-2.483,2.869-2.672,2.672-2.964
							c-0.189-0.283,0.103-4.399,0.103-5.928s0.473-3.436-0.868-5.249c-1.332-1.821-1.426-0.387-1.907,1.907
							c-0.481,2.294,0.576,5.258,0.095,7.363c-0.481,2.096-0.954,2.577-2.672,3.059c-1.727,0.473-1.246-1.821-1.435-4.588
							c-0.197-2.775-1.057-7.646-0.481-10.034c0.524-2.174,4.622-11.426,5.773-14.562v-0.009c0.12-0.301,0.198-0.541,0.249-0.722
							c0.576-2.01-9.751-46.357-10.61-49.991c-0.859-3.625-1.624-10.129-1.624-10.129l-4.519-23.497l-1.022-5.335l20.378-3.565
							c0,0,0.275,1.83,0.662,4.527c0.43,2.998,1.005,7.079,1.495,10.894c0.576,4.45,1.04,8.531,1.04,10.094
							c0,4.081,4.459,17.079,4.906,24.467c0.447,7.388,1.718,36.959,2.234,40.782c0.507,3.823-0.515,7.895,0,9.94
							C375.769,292.8,376.792,303.762,376.792,303.762z"/>
						<path style="fill:#DB9673;" d="M357.178,218.049c-4.433,5.155-2.01,12.045,0,20.842c2.01,8.797,7.165,33.711,7.165,38.436
							c0,1.77-1.005,3.943-2.268,5.971c0.12-0.301,0.198-0.541,0.249-0.722c0.576-2.01-9.751-46.357-10.61-49.991
							c-0.859-3.625-1.624-10.129-1.624-10.129l-4.519-23.497c5.447-0.842,20.009-4.39,20.009-4.39l0.009,0.017
							c0.43,2.998,1.005,7.079,1.495,10.894C364.283,207.971,360.511,214.174,357.178,218.049z"/>
						<path style="fill:#5972BE;" d="M261.601,236.515c-0.643,10.536-3.976,53.054-3.976,53.054s1.428,0.036,3.753,0.079
							C262.787,271.845,262.731,254.398,261.601,236.515z"/>
						<path style="fill:#4661AE;" d="M357.178,147.817c-0.086,0.215-0.18,0.447-0.275,0.704l-0.146,0.404
							c-0.086,0.223-0.172,0.455-0.258,0.704c0,0,0,0,0,0.009c-2.801,7.912-8.763,28.797-10.464,37.741
							c-0.292,1.546-0.455,2.741-0.455,3.445c0,5.155-0.644,24.485-0.971,32.895c-0.318,8.402,3.866,68.591,3.866,68.591
							s2.096,1.125-1.289,0c-1.065-0.352-5.954-0.799-12.56-1.237c-4.33-0.284-9.39-0.567-14.596-0.807
							c-12.105-0.567-24.957-0.928-30.988-0.696c-1.409,0.052-2.895,0.095-4.424,0.129c-3.634,0.069-7.509,0.086-11.151,0.077
							c-4.768-0.009-9.15-0.077-12.088-0.129c1.409-17.801,1.349-35.249,0.223-53.127c0.017-0.335,0.034-0.644,0.052-0.911
							c0.103-1.924,0.103-5.266,0.017-9.416c-0.301-14.656-1.589-39.382-2.594-47.285c-0.086-0.653-0.155-1.392-0.215-2.199
							c-0.696-9.562,0.275-28.771,1.315-35.361c0.189-1.246,0.387-2.036,0.576-2.234c0.034-0.017,0.06-0.034,0.095-0.052
							c1.366-0.756,6.039-2.869,10.361-4.802c4.321-1.933,8.299-3.677,8.299-3.677c3.05-1.469,3.058-1.469,6.452-2.397
							c0.009-0.008,0.017-0.008,0.017-0.008h41.4c1.358,0.618,6.126,2.406,6.126,2.406s0.782,0.404,2.079,1.108
							c1.504,0.825,3.703,2.062,6.143,3.565c0.009,0.009,0.017,0.009,0.026,0.017C347.384,138.719,354.326,143.538,357.178,147.817z
							"/>
						<path style="fill:#405598;" d="M338.703,194.325c-0.938-3.028-2.597-5.772-4.241-8.482c-2.045-3.371-4.09-6.743-6.135-10.114
							c-2.239-3.691-4.617-7.524-8.309-9.762c-2.104-1.276-4.585-1.996-6.352-3.71c0.065,3.096,1.225,6.055,2.475,8.888
							c4.279,9.693,10.287,18.298,15.647,27.383c1.124,1.905,2.286,3.855,4.02,5.227c0.512,0.405,1.131,0.77,1.778,0.683
							c1.593-0.214,1.597-2.721,1.823-3.935C339.783,198.483,339.302,196.26,338.703,194.325z"/>
						<path style="fill:#405598;" d="M339.681,256.843c-1.649-7.906-3.298-15.811-4.947-23.717c-0.63-3.022-1.271-6.077-2.593-8.867
							c-1.631-3.444-4.219-6.323-6.603-9.297c-1.833-2.287-3.563-4.657-5.193-7.093c-0.905-1.352-1.781-2.725-2.627-4.115
							c-0.506-0.831-1.452-1.916-1.718-2.855c-0.323-1.14-0.069-2.495-0.371-3.707c-0.668-2.68-2.207-5.066-3.715-7.343
							c-2.88-4.348-5.76-8.696-8.639-13.044c-1.167,5.206,0.167,10.609,1.493,15.776c2.601,10.129,5.202,20.258,7.803,30.388
							c-1.517,0.847-3.334-0.362-4.595-1.557c-15.223-14.424-21.692-35.837-35.023-52.025c-1.234,4.391-0.346,9.082,0.828,13.49
							c3.336,12.529,8.9,24.333,14.434,36.058c-3.161-1.834-6.455-3.44-9.848-4.8c2.032,12.041,6.408,23.683,12.81,34.082
							c-3.443-1.909-7.08-3.395-10.52-5.303c-1.328-0.736-2.847-1.26-4.363-1.42c-0.49-0.052-6.389,0.546-6.334,0.206
							c-0.485,3.007-0.189,6.105,0.578,9.053c0.595,2.286,1.467,4.489,2.337,6.685c3.263,8.236,6.658,16.684,12.718,23.146
							c0.893,0.952,2.214,1.926,3.384,1.348c-1.881-8.955-8.444-16.919-7.951-26.055c3.306,2.023,6.254,4.626,8.686,7.642
							c1.107,1.373,1.926,3.292,3.205,4.475c4.927,4.561,10.426,8.768,16.184,12.246c0.802,0.484,1.749,0.972,2.632,0.662
							c0.82-0.288,1.258-1.149,1.761-1.857c1.801-2.537,5.172-3.59,8.273-3.341c4.004,0.322,7.108,2.638,10.749,3.957
							c0.913,0.331,1.816,0.593,2.664,1.084c2.777,1.61,5.102,3.403,8.266,4.288c-0.057-0.016-0.364-3.231-0.433-3.558
							c-0.249-1.173-0.704-2.307-0.857-3.5c-0.21-1.636,0.22-3.291,0.132-4.941C341.999,267.582,340.793,262.173,339.681,256.843z"
							/>
						<path style="fill:#405598;" d="M279.446,132.773c6.39,6.837,12.29,14.132,17.64,21.81c0.253,0.364,0.526,0.746,0.932,0.923
							c0.313,0.136,0.667,0.133,1.009,0.128c2.236-0.037,4.471-0.074,6.707-0.11c-2.994,0.248-5.988,0.495-8.983,0.743
							c-0.103-0.347-0.207-0.693-0.31-1.04L279.446,132.773z"/>
						<path style="fill:#405598;" d="M317.608,152.009l-2.431,3.213c-0.103,0.352-0.206,0.696-0.309,1.048
							c-2.998-0.249-5.988-0.498-8.986-0.747c2.234,0.034,4.476,0.077,6.71,0.112c0.335,0.009,0.696,0.009,1.005-0.129
							c0.404-0.181,0.679-0.559,0.937-0.919c0.816-1.168,1.641-2.328,2.483-3.471C317.204,151.417,317.401,151.709,317.608,152.009z
							"/>
						<path style="fill:#4661AE;" d="M332.169,132.774l-14.562,19.235c-0.206-0.301-0.404-0.593-0.593-0.893
							C321.68,144.698,326.749,138.573,332.169,132.774z"/>
						<path style="fill:#DBE4EF;" d="M296.019,124.498l-10.04,3.677c0,0,14.981,18.354,18.363,25.925
							c3.683-3.558,6.798-6.706,9.436-9.477c-5.538-6.507-10.946-12.959-14.441-20.544
							C297.749,124.151,296.577,124.294,296.019,124.498z"/>
						<path style="fill:#C7D5E6;" d="M299.337,124.08c3.495,7.585,8.903,14.037,14.441,20.544
							c10.975-11.528,13.599-16.448,13.599-16.448C320.939,124.825,306.223,123.771,299.337,124.08z"/>
						<path style="fill:#E3B393;" d="M296.019,118.966v5.533c0,0-2.392,2.392-3.289,4.634c-0.897,2.242,2.392,10.167,13.759,10.167
							c1.691,0,3.189-0.128,4.524-0.353c-4.65-6.246-8.747-12.703-11.99-19.98H296.019z"/>
						<path style="fill:#FFC8AE;" d="M296.027,122.933c0.255,3.28,0.621,6.551,1.095,9.806c0.201,0.103,0.353-0.205,0.371-0.43
							c0.176-2.232,0.272-4.469,0.29-6.708c0.011-1.479-0.021-3.003-0.606-4.361c-0.032-0.075-0.067-0.151-0.127-0.206
							c-0.076-0.071-0.18-0.099-0.28-0.125c-0.204-0.053-0.408-0.106-0.612-0.159L296.027,122.933z"/>
						<path style="fill:#DB9673;" d="M321.431,130.325c-0.636,2.801-2.784,7.337-10.421,8.617
							c-4.648-6.246-8.746-12.698-11.984-19.974h19.983c0.017,0.533,0.043,1.014,0.06,1.46c0.232,4.253,0.722,4.459,0.722,5.266
							c0,0.18,0.103,0.352,0.249,0.524C320.64,126.898,322.032,127.722,321.431,130.325z"/>
						<path style="fill:#FFC8AE;" d="M320.039,126.219v0.069c-0.601-0.885-1.031-1.881-1.263-2.93
							c-0.146-0.679-0.24-1.443-0.764-1.899l1.057-1.031c0.232,4.253,0.722,4.459,0.722,5.266
							C319.79,125.875,319.893,126.047,320.039,126.219z"/>
						<path style="fill:#4661AE;" d="M260.932,172.817c-0.713,1.28-1.4,2.577-2.07,3.892c-4.33,8.496-7.826,17.543-11.512,26.521
							c-3.943-1.435-8.273-3.136-12.32-4.974c-1.555-0.713-3.076-1.435-4.502-2.182c-0.369-0.189-0.73-0.378-1.091-0.576
							c0,0,24.725-52.646,31.314-56.383c0.034-0.017,0.06-0.034,0.095-0.052l0.009,1.735L260.932,172.817z"/>
						<path style="fill:#405598;" d="M247.352,203.229c4.792,1.745,9.018,3.108,11.458,3.867v0.009c1.4,0.43,2.216,0.67,2.216,0.67
							l-0.092-34.955C255.61,182.421,251.607,192.872,247.352,203.229z"/>
						<path style="fill:#405598;" d="M344.129,211.697c0,0.652,4.36-0.818,9.838-2.92c-1.85-9.066-6.002-17.211-9.838-25.482
							C344.129,189.106,344.129,210.186,344.129,211.697z"/>
						<path style="fill:#405598;" d="M344.128,181.803c0,0,0,0.558,0,1.495c0.627,1.357,1.271,2.723,1.907,4.081
							c3.239,6.89,6.383,13.823,7.93,21.4c3.433-1.318,7.302-2.884,10.817-4.336c-6.328-13.199-12.685-26.895-13.632-40.928
							L344.128,181.803z"/>
						<path style="fill:#4661AE;" d="M375.7,199.844c0,0,0-1.074-3.866-8.162c-3.866-7.088-14.974-43.033-14.656-43.866
							l-0.275,0.704l-0.146,0.404l-0.266,0.679l-5.341,13.912c0.947,14.033,7.305,27.728,13.632,40.928
							c4.367-1.803,8.185-3.427,9.922-4.17C375.34,199.999,375.7,199.844,375.7,199.844z"/>
						<polygon style="fill:#94AED0;" points="267.726,211.133 267.726,209.995 320.403,217.297 323.213,248.869 322.605,250.429 
							319.736,218.375 						"/>
						<path style="fill:#8CA8D8;" d="M322.605,250.429l-45.773-4.863l-0.859-3.247l-0.069-0.275l-3.539-13.35l-0.352-1.34
							l-0.387-1.486l-0.026-0.094l-0.945-3.565l-0.086-0.326l-2.844-10.747c0,0,51.014,7.113,52.01,7.242
							C320.733,218.495,322.605,250.429,322.605,250.429z"/>
						<path d="M374.413,338.594"/>
						<path style="fill:#383838;" d="M329.09,155.696c0.151-1.407,0.223-2.838,0.223-4.279c-0.002-6.596-1.488-13.386-3.658-18.991
							c-1.087-2.803-2.344-5.309-3.69-7.351c-1.349-2.041-2.773-3.626-4.275-4.575l-0.914,1.455
							c1.178,0.736,2.497,2.151,3.754,4.066c1.893,2.871,3.671,6.848,4.962,11.29c1.293,4.443,2.103,9.355,2.103,14.107
							c0,1.384-0.068,2.754-0.213,4.095L329.09,155.696L329.09,155.696z"/>
						<path style="fill:#383838;" d="M293.441,173.636c0-0.001-0.042-0.309-0.117-0.872c-0.261-1.972-0.913-7.051-1.5-12.756
							c-0.587-5.703-1.107-12.043-1.107-16.49c0-0.699,0.013-1.35,0.04-1.942c0.212-4.709,0.54-9.122,1.487-12.522
							c0.471-1.7,1.094-3.139,1.899-4.243c0.808-1.105,1.776-1.882,3.027-2.333l-0.58-1.617c-1.596,0.569-2.869,1.605-3.836,2.939
							c-1.454,2.006-2.275,4.659-2.804,7.689c-0.525,3.031-0.746,6.453-0.908,10.009c-0.029,0.624-0.042,1.301-0.042,2.02
							c0.001,5.223,0.687,12.789,1.371,19.075c0.684,6.283,1.368,11.271,1.369,11.277L293.441,173.636L293.441,173.636z"/>
						<path style="fill:#878787;" d="M334.107,166.085c0,0.002-0.015,0.768-0.045,1.982c-0.045,1.821-0.125,4.645-0.238,7.371
							c-0.112,2.723-0.261,5.364-0.437,6.765c-0.236,1.912-0.598,5.112-1.977,7.767c-0.688,1.328-1.617,2.51-2.897,3.365
							c-1.281,0.853-2.925,1.398-5.125,1.4c-0.111,0-0.225-0.002-0.34-0.004l-0.031,1.37c0.124,0.003,0.248,0.004,0.372,0.004
							c2.427,0.002,4.372-0.618,5.885-1.63c2.275-1.521,3.544-3.863,4.295-6.139c0.751-2.28,0.999-4.535,1.178-5.962
							c0.248-1.993,0.426-6.031,0.548-9.606c0.121-3.57,0.182-6.653,0.182-6.655L334.107,166.085L334.107,166.085z"/>
						<path style="fill:#FFFFFF;" d="M334.66,166.096L334.66,166.096c0,0.002-0.015,0.77-0.046,1.985
							c-0.09,3.645-0.318,11.306-0.678,14.191c-0.238,1.909-0.596,5.176-2.035,7.953c-0.78,1.5-1.883,2.839-3.442,3.765
							c0.169,0,0.337,0,0.506,0c1.416-0.943,2.441-2.231,3.171-3.644c1.467-2.835,1.823-6.134,2.062-8.041
							c0.484-3.884,0.725-16.2,0.726-16.203L334.66,166.096z"/>
						<path style="fill:#878787;" d="M331.445,194.088c-3.746-0.201-6.019-1.609-7.458-3.364c-1.435-1.756-2.011-3.922-2.123-5.584
							c-0.119-1.735-0.261-6.902-0.371-11.607c-0.056-2.355-0.103-4.599-0.137-6.255c-0.034-1.656-0.054-2.719-0.054-2.722
							l-1.37,0.026c0,0.001,0.08,4.27,0.191,8.984c0.111,4.718,0.251,9.86,0.374,11.668c0.13,1.882,0.762,4.307,2.428,6.356
							c1.662,2.051,4.383,3.664,8.449,3.867L331.445,194.088L331.445,194.088z"/>
						<path style="fill:#FFFFFF;" d="M323.389,195.288c-0.116,0-0.234-0.002-0.353-0.004l-0.006,0.264
							c0.12,0.003,0.24,0.004,0.359,0.004c1.076,0.001,2.032-0.137,2.901-0.364c-0.049-0.07-0.079-0.163-0.118-0.245
							C325.337,195.156,324.423,195.288,323.389,195.288z"/>
						<path style="fill:#FFFFFF;" d="M331.57,194.641c-3.876-0.202-6.329-1.692-7.858-3.566c-1.528-1.875-2.127-4.145-2.246-5.896
							c-0.121-1.765-0.262-6.921-0.372-11.632c-0.055-2.356-0.103-4.601-0.137-6.257c-0.034-1.656-0.054-2.72-0.054-2.723
							l-0.263,0.005c0,0.002,0.322,17.072,0.564,20.624c0.123,1.793,0.732,4.113,2.305,6.045c1.572,1.931,4.111,3.462,8.049,3.663
							L331.57,194.641L331.57,194.641z"/>
						<path style="fill:#FFFFFF;" d="M333.775,194.865l-0.03-0.242c-0.084-0.662-1.66-1.047-2.357-0.697
							c-0.377,0.189-0.563,0.543-0.594,0.924C331.865,195.42,332.641,195.751,333.775,194.865z"/>
						<path style="fill:#D6D6D6;" d="M330.794,194.851c-0.027,0.321,0.056,0.661,0.242,0.939c0.287,0.426,1.803,0.272,2.322,0
							c0.45-0.236,0.474-0.444,0.417-0.924C332.641,195.751,331.865,195.42,330.794,194.851z"/>
						<path style="fill:#FFFFFF;" d="M320.639,195.187l0.03-0.242c0.084-0.662,1.66-1.047,2.356-0.697
							c0.378,0.189,0.564,0.544,0.595,0.924C322.549,195.742,321.772,196.074,320.639,195.187z"/>
						<path style="fill:#D6D6D6;" d="M323.62,195.173c0.026,0.321-0.056,0.661-0.243,0.939c-0.287,0.426-1.802,0.271-2.322,0
							c-0.449-0.236-0.473-0.444-0.416-0.924C321.772,196.074,322.549,195.742,323.62,195.173z"/>
						<path style="fill:#383838;" d="M321.573,165.067l-0.001-0.01c-0.007-0.067-0.041-0.437-0.041-0.993
							c-0.005-1.251,0.187-3.434,1.159-5.189c0.485-0.881,1.147-1.655,2.081-2.223c0.935-0.566,2.16-0.939,3.831-0.941
							c1.26,0.002,2.181,0.301,2.905,0.771c1.079,0.702,1.768,1.861,2.185,3.222c0.416,1.354,0.541,2.872,0.54,4.13
							c0,0.789-0.048,1.477-0.095,1.963c-0.024,0.243-0.047,0.436-0.064,0.566l-0.021,0.146l-0.007,0.043l1.696,0.276
							c0.005-0.031,0.208-1.281,0.208-2.996c-0.005-1.825-0.218-4.179-1.241-6.196c-0.513-1.006-1.245-1.93-2.264-2.596
							c-1.018-0.667-2.307-1.053-3.844-1.051c-1.929-0.002-3.496,0.444-4.723,1.191c-1.847,1.121-2.867,2.866-3.413,4.53
							c-0.549,1.671-0.652,3.296-0.654,4.351c0,0.715,0.05,1.168,0.052,1.193L321.573,165.067L321.573,165.067z"/>
						<path style="fill:#AFAFAF;" d="M296.254,172.839c-0.628-1.254-1.431-2.019-2.127-1.864c-1.006,0.225-1.404,2.275-0.943,4.644
							C294.346,174.924,295.243,173.82,296.254,172.839z"/>
						<path style="fill:#FFFFFF;" d="M297.037,175.07c-0.188-0.84-0.465-1.595-0.783-2.231c-1.011,0.981-1.908,2.085-3.07,2.78
							c0.02,0.101,0.031,0.199,0.054,0.3c0.077,0.342,0.169,0.668,0.271,0.981c1.257-0.146,2.515-0.083,3.772,0.005
							C297.258,176.331,297.18,175.711,297.037,175.07z"/>
						<path style="fill:#AFAFAF;" d="M293.509,176.901c0.642,1.975,1.734,3.316,2.639,3.114c0.78-0.174,1.198-1.444,1.133-3.108
							C296.023,176.818,294.766,176.755,293.509,176.901z"/>
						<path style="fill:#FFC8AE;" d="M324.206,112.516c-0.902,1.778-2.199,4.261-3.694,6.735c-2.44,4.029-5.413,8.041-8.11,8.969
							c-0.12,0.043-0.241,0.077-0.369,0.12c-3.041,0.919-7.156,0.739-9.897,0.052c-1.194-0.292-2.131-0.696-2.603-1.143
							c-1.581-1.512-6.237-7.053-8.806-13.058c-1.555-3.634-2.302-9.639-2.534-14.991c-0.155-3.505-0.086-6.735,0.112-8.84
							c0.438-4.648,4.278-19.579,18.565-19.614c9.536-0.026,14.476,5.765,16.916,11.461c0.61,1.4,1.057,2.801,1.392,4.106
							c0.576,2.259,0.79,4.244,0.808,5.481C325.984,91.795,326.577,107.843,324.206,112.516z"/>
						<path style="fill:#FFD6C3;" d="M295.083,100.979c1.682,0.806,3.642,0.691,5.499,0.511c0.576-0.056,1.237-0.168,1.531-0.668
							c-0.91-0.578-1.877-1.172-2.954-1.222c-0.493-0.023-0.983,0.07-1.468,0.162c-0.482,0.092-0.963,0.184-1.445,0.276
							L295.083,100.979z"/>
						<path style="fill:#FFD6C3;" d="M318.986,101.166c-1.682,0.806-3.642,0.691-5.499,0.511c-0.576-0.056-1.237-0.168-1.531-0.668
							c0.91-0.578,1.877-1.171,2.954-1.222c0.493-0.023,0.983,0.07,1.468,0.162c0.482,0.092,0.963,0.184,1.445,0.276
							L318.986,101.166z"/>
						<path style="fill:#E3B393;" d="M324.206,112.516c-0.902,1.778-2.199,4.261-3.694,6.735c1.83-5.49,2.474-11.323,2.938-17.105
							c0.103-1.375,0.206-2.758,0-4.115c-0.24-1.512-0.851-2.938-1.486-4.321c-0.79-1.701-1.632-3.368-2.534-5.017
							c-3.522,0.18-7.053,0.112-10.567-0.18c-3.625-0.309-7.354-0.919-10.404-2.912l17.586-6.89c2.637,0.49,5.155,1.572,7.311,3.162
							c0.146,0.103,0.283,0.215,0.429,0.335c0.61,1.4,1.057,2.801,1.392,4.106c0.576,2.259,0.79,4.244,0.808,5.481
							C325.984,91.795,326.577,107.843,324.206,112.516z"/>
						<path style="fill:#FFD6C3;" d="M302.135,128.392c-1.194-0.292-2.131-0.696-2.603-1.143c-1.581-1.512-6.237-7.053-8.806-13.058
							c-1.555-3.634-2.302-9.639-2.534-14.991c0.412,0.326,0.567,0.936,0.67,1.486c0.421,2.165,0.842,4.338,1.263,6.512
							c0.215,1.083,0.421,2.165,0.627,3.256c0.052,0.258,0.095,0.498,0.103,0.756c0.017,0.344,0.301,0.67,0.464,0.962
							c0.223,0.387,0.447,0.773,0.67,1.151c0.885,1.512,1.761,3.024,2.637,4.536C296.809,121.605,299.034,125.411,302.135,128.392z"
							/>
						<path style="fill:#E3B393;" d="M293.414,97.052c1.875-0.131,3.762-0.096,5.631,0.103c0.883,0.094,1.785,0.231,2.564,0.658
							c0.473,0.259,0.885,0.616,1.292,0.97c0.409,0.355,0.817,0.71,1.226,1.065c0.291-1.07-0.06-2.25-0.753-3.115
							c-0.694-0.865-1.694-1.442-2.741-1.806c-1.445-0.501-3.158-0.589-4.406,0.296L293.414,97.052z"/>
						<path style="fill:#E3B393;" d="M307.74,101.522c0,0-0.465,10.405-0.447,10.873c0.017,0.465,2.849,0.293,2.883,0.291
							c-0.103,0.006-0.76-7.587-0.806-8.243c-0.033-0.468-0.02-0.943-0.061-1.409c-0.017-0.201-0.051-0.363,0.002-0.564
							c0.142-0.531,0.362-1.064,0.596-1.559c0.284-0.602,0.649-1.173,1.142-1.626c0.595-0.546,1.345-0.894,2.102-1.175
							c2.383-0.884,5.056-1.181,7.47-0.387c-0.044-0.014-0.173-0.369-0.21-0.428c-0.09-0.143-0.197-0.276-0.316-0.396
							c-0.234-0.236-0.529-0.439-0.846-0.546c-0.151-0.051-0.291-0.058-0.438-0.125c-0.187-0.085-0.372-0.168-0.565-0.238
							c-0.388-0.14-0.789-0.241-1.19-0.335c-0.411-0.096-0.828-0.168-1.247-0.211c-1.949-0.198-3.9,0.294-5.411,1.57
							c-0.158,0.133-0.31,0.273-0.456,0.419C308.329,99.039,307.75,99.823,307.74,101.522z"/>
						<g>
							<path style="fill:#E3B393;" d="M289.15,100.493c-0.601-0.277-0.975-2.036-2.844-1.759c-1.868,0.278-1.72,2.684-1.136,5.739
								c0.584,3.055,1.899,6.366,2.901,7.035s1.636-1.389,1.636-1.389L289.15,100.493z"/>
							<path style="fill:#E3B393;" d="M325.253,100.881c0.601-0.277,0.975-2.036,2.843-1.759c1.868,0.278,1.72,2.684,1.136,5.739
								c-0.584,3.055-1.899,6.366-2.901,7.035s-1.636-1.389-1.636-1.389L325.253,100.881z"/>
						</g>
						<g>
							<path d="M289.125,76.123c0,0,1.874,8.125,8.419,10.269c6.545,2.144,20.989-0.903,20.989-0.903s3.385,5.868,4.965,7.786
								c1.58,1.918,1.778,9.424,1.778,9.424s-0.21-0.581,0.924-2.859c1.134-2.278,1.639-12.944-0.843-23.1
								c-1.341-5.485-8.968-11.902-19.575-9.645C295.735,69.233,288.258,71.158,289.125,76.123z"/>
							<path d="M289.125,76.123c-4.784,3.047-2.52,20.672-1.734,22.861c0.787,2.19,2.119,5.463,2.119,5.463
								s0.103-10.383,0.344-11.285c0.241-0.903,4.191-6.432,4.755-9.592C295.174,80.411,289.125,76.123,289.125,76.123z"/>
							<path d="M308.366,86.826c1.444-0.224,2.903,0.188,4.307,0.595c1,0.291,2,0.581,3,0.872c-1.142-0.631-2.283-1.262-3.425-1.894
								c2.239,0.027,4.472,0.518,6.516,1.432c-2.114-1.922-5.053-2.902-7.897-2.633L308.366,86.826z"/>
						</g>
						<path d="M303.35,95.632c-0.918-0.328-2.525-1.521-5.146-1.413c-1.853,0.077-4.116,1.841-5.09,2.946
							c0,0,3.236-1.34,4.887-1.521c2.655-0.291,4.529,1.268,5.581,1.702C303.511,96.766,303.46,96.157,303.35,95.632z"/>
						<path d="M310.472,95.717c0.918-0.328,2.525-1.521,5.146-1.413c1.853,0.077,4.116,1.841,5.09,2.946c0,0-3.236-1.34-4.887-1.521
							c-2.656-0.291-4.529,1.268-5.581,1.702C310.311,96.851,310.362,96.242,310.472,95.717z"/>
						<path style="fill:#DB9673;" d="M303.849,112.685c0,0,3.008-0.364,3.507-0.291c0.499,0.073,2.883,0.291,2.883,0.291
							s-1.952,1.164-3.384,1.164C305.423,113.849,303.849,112.685,303.849,112.685z"/>
						<path style="fill:#DB9673;" d="M314.153,117.128c-2.658,1.817-7.571,3.609-14.218-0.035c3.079,0.804,5.684,0.873,5.71,0.671
							l1.653,0.505l1.884-0.55C310.85,117.854,312.509,117.704,314.153,117.128z"/>
						<path style="fill:#DB9673;" d="M305.492,121.237c1.254,0.228,2.368,0.195,3.238,0.048c0.53-0.089,0.861,0.565,0.491,0.955
							c-1.218,1.286-2.758,1.485-4.259-0.074C304.588,121.778,304.961,121.141,305.492,121.237z"/>
						<g>
							<path d="M300.017,100.591c0,0.428-0.183,0.805-0.489,1.06c-0.153,0.02-0.306,0.031-0.459,0.041
								c-0.377,0.02-0.744,0-1.111-0.051c-0.102-0.01-0.204-0.02-0.316-0.041c-0.265-0.255-0.428-0.611-0.428-1.009
								c0-0.774,0.622-1.406,1.396-1.406C299.396,99.185,300.017,99.817,300.017,100.591z"/>
							<path d="M316.873,100.907c0,0.459-0.214,0.856-0.55,1.121c-0.01,0-0.01,0-0.01,0c-0.102,0.01-0.204,0.02-0.306,0.031
								c-0.448,0.041-0.887,0.041-1.325,0.01c-0.367-0.245-0.612-0.673-0.612-1.162c0-0.774,0.622-1.406,1.406-1.406
								C316.251,99.501,316.873,100.133,316.873,100.907z"/>
							<path d="M294.826,101.175l0.352-0.726c0,0,1.134-1.295,3.131-1.422c1.159-0.074,3.682,1.074,3.682,1.074l0.414,0.909
								l-0.414,0.032c0,0-1.375-1.111-2.792-1.302c-1.417-0.191-1.058-0.164-1.22-0.163
								C296.66,99.589,294.826,101.175,294.826,101.175z"/>
							<path d="M319.262,101.522l-0.351-0.726c0,0-1.134-1.295-3.131-1.422c-1.159-0.074-3.682,1.074-3.682,1.074l-0.414,0.909
								l0.414,0.032c0,0,1.376-1.111,2.792-1.302c1.417-0.191,1.058-0.164,1.22-0.163
								C317.428,99.935,319.262,101.522,319.262,101.522z"/>
						</g>
						<path style="fill:#FFC8AE;" d="M295.529,234.363c-0.258,0.361-1.022,0.601-2.139,0.765c-2.113,0.301-6.744,1.297-7.345,1.435
							h-0.009c-0.043,0-0.06,0.009-0.06,0.009s-0.421,0.558-1.357,1.4v0.009c-0.301,0.275-0.661,0.584-1.082,0.911
							c-0.241,0.189-0.498,0.378-0.782,0.584c-0.266,0.197-0.601,0.395-0.979,0.584c-1.143,0.593-2.698,1.16-4.244,1.615
							c-0.455,0.137-0.911,0.258-1.357,0.369c-1.117,0.275-2.156,0.464-2.938,0.515c-0.387,0.026-0.704,0.017-0.945-0.026
							c-1.461-0.258-2.904-1.28-3.918-2.354c-0.215-0.232-0.421-0.473-0.593-0.704c-0.069-0.086-0.129-0.181-0.18-0.275
							c-0.541-0.868-0.842-1.899-1.22-2.844c-0.344-0.842-0.567-1.65-0.807-2.517c-0.241-0.859-0.962-1.435-1.658-1.942
							c-0.962-0.713-2.027-1.28-3.076-1.856c-3.806-2.045-7.552-4.192-11.237-6.452c-2.191-1.34-4.364-2.715-6.512-4.124
							c-1.031-0.679-2.045-1.495-3.136-2.053c-0.679-0.344-1.289-0.825-1.907-1.271c-1.074-0.782-2.148-1.581-3.144-2.457
							c-0.163-0.146-0.327-0.301-0.49-0.455c-0.816-0.782-1.564-1.667-2.002-2.68c-0.249-0.576-0.395-1.186-0.395-1.839
							c0-2.509,1.667-7.131,3.016-10.455c0.198,0.086,0.387,0.172,0.584,0.258c1.203,0.541,2.423,1.074,3.651,1.581
							c3.136,1.297,6.297,2.491,9.201,3.539c1.469,0.524,2.869,1.014,4.167,1.452c0.782,0.266,1.521,0.516,2.225,0.747
							c0.069,0.026,0.137,0.043,0.206,0.069c0.43,0.137,0.833,0.266,1.22,0.395c0.696,0.223,1.392,0.447,2.088,0.661
							c0.155,0.052,0.301,0.095,0.438,0.146c2.045,3.273,4.064,6.005,6.357,8.96c0.893,1.151,1.83,2.337,2.826,3.6
							c2.122,2.68,1.753,2.388,2.844,2.216l0.086,0.326l0.945,3.565l0.026,0.094c-0.206,0.318-0.258,0.696-0.034,1.057v0.009
							c0.095,0.146,0.232,0.283,0.421,0.421c0.094,0.069,0.206,0.137,0.326,0.198c0.327,0.163,0.773,0.326,1.315,0.498
							c0.481,0.146,1.031,0.292,1.624,0.429c2.612,0.61,6.048,1.168,8.016,1.495c2.904,0.481,4.51,0.962,4.51,2.414
							c0,0,4.837-0.807,6.607,0.481C295.572,233.513,295.803,234.003,295.529,234.363z"/>
						<path style="fill:#FFD6C3;" d="M234.334,208.341c-0.129,1.383-0.266,2.784-0.069,4.158c0.034,0.249,0.077,0.49,0.146,0.73
							c-0.816-0.782-1.564-1.667-2.002-2.68c-0.249-0.576-0.395-1.186-0.395-1.839c0-2.509,1.667-7.131,3.016-10.455
							c0.198,0.086,0.387,0.172,0.584,0.258c0.404,0.344,0.679,0.825,0.67,1.357c0,0.533-0.275,1.031-0.498,1.521
							C234.79,203.547,234.558,205.97,234.334,208.341z"/>
						<path style="fill:#E3B393;" d="M295.529,234.363c-0.258,0.361-1.022,0.601-2.139,0.765c-2.113,0.301-6.744,1.297-7.345,1.435
							h-0.009c-0.043,0-0.06,0.009-0.06,0.009s-0.421,0.558-1.357,1.4v0.009c-0.301,0.275-0.661,0.584-1.082,0.911
							c-0.241,0.189-0.498,0.378-0.782,0.584c-0.266,0.197-0.601,0.395-0.979,0.584c-1.143,0.593-2.698,1.16-4.244,1.615
							c-0.455,0.137-0.911,0.258-1.357,0.369c-1.117,0.275-2.156,0.464-2.938,0.515c-0.498-0.515-0.833-1.194-0.876-1.907
							c-0.077-1.074,0.404-2.251-0.18-3.153c-0.335-0.533-0.971-0.825-1.237-1.392c-0.447-0.971,0.412-2.191-0.043-3.161
							c-0.258-0.541-0.876-0.842-1.177-1.366c-0.455-0.773,0.026-1.916,0.893-2.139l4.931-0.962c2.612,0.61,6.048,1.168,8.016,1.495
							c2.904,0.481,4.51,0.962,4.51,2.414c0,0,4.837-0.807,6.607,0.481C295.572,233.513,295.803,234.003,295.529,234.363z"/>
						<path style="fill:#DB9673;" d="M295.529,234.363c-1.229-0.584-2.509-1.04-3.866-1.1c-1.117-0.052-2.225,0.163-3.325,0.352
							c-4.536,0.739-9.167,0.885-13.737,0.429c4.046,0.077,8.101-0.249,12.079-0.971c-0.146-1.074-1.512-1.392-2.594-1.486
							c-3.067-0.275-6.108-0.765-9.107-1.469c-0.825-0.198-1.667-0.421-2.328-0.954c-0.661-0.533-1.091-1.443-0.79-2.234
							c0.095,0.146,0.232,0.283,0.421,0.421c0.094,0.069,0.206,0.137,0.326,0.198c0.327,0.163,0.773,0.326,1.315,0.498
							c2.612,0.782,7.234,1.52,9.639,1.924c2.904,0.481,4.51,0.962,4.51,2.414c0,0,4.837-0.807,6.607,0.481
							C295.572,233.513,295.803,234.003,295.529,234.363z"/>
						<path style="fill:#DB9673;" d="M265.168,216.064c-4.424-1.847-8.393-4.605-12.182-7.517c-0.954-0.73-1.873-1.28-2.878-1.899
							c-1.624-1.005-3.454-1.589-5.163-2.414c-2.113-1.031-4.046-2.44-5.679-4.141c3.136,1.297,6.297,2.491,9.201,3.539
							c1.469,0.524,2.869,1.014,4.167,1.452c0.713,0.301,1.495,0.507,2.225,0.747c0.069,0.026,0.137,0.043,0.206,0.069
							c0.404,0.129,0.808,0.266,1.22,0.395c0.696,0.223,1.392,0.447,2.088,0.661c0.146,0.052,0.292,0.103,0.438,0.146
							C260.855,210.377,262.874,213.109,265.168,216.064z"/>
					</g>
					<path style="fill:#FFD6C3;" d="M306.524,111.077c-0.052,0.226-0.142,0.442-0.316,0.59c-0.26,0.223-0.635,0.234-0.977,0.234
						c-0.163,0-0.326,0-0.489,0c-0.083,0-0.167,0-0.246-0.026c-0.288-0.093-0.444-0.509-0.298-0.767
						c0.084-0.149,0.168-0.277,0.218-0.443c0.065-0.212,0.102-0.432,0.193-0.636c0.073-0.163,0.109-0.342,0.178-0.507
						c0.148-0.357,0.347-0.69,0.544-1.021c0.106-0.177,0.217-0.361,0.388-0.476c0.171-0.116,0.421-0.143,0.576-0.006
						c0.105,0.093,0.145,0.238,0.175,0.376c0.174,0.788,0.209,1.607,0.102,2.407C306.56,110.894,306.545,110.986,306.524,111.077z"
						/>
					<path style="fill:#FFD6C3;" d="M307.788,119.628c0.392,0.168,0.887,1.012,0.214,1.176c-0.185,0.045-0.457-0.062-0.648-0.072
						c-0.321-0.016-0.648-0.041-0.97-0.024c-0.614,0.032-1.079-0.162-1.594-0.546c-0.181-0.149-0.098-0.467,0.097-0.597
						c0.195-0.13,0.446-0.127,0.681-0.12c0.442,0.014,0.884,0.028,1.326,0.042C307.197,119.497,307.509,119.508,307.788,119.628z"/>
					<path style="fill:#FFD6C3;" d="M309.176,119.502c0.509-0.068,0.571,0.823,0.158,0.992c-0.208,0.085-0.438-0.068-0.513-0.264
						c-0.074-0.193-0.02-0.423,0.11-0.579C308.994,119.576,309.079,119.515,309.176,119.502z"/>
					<path style="fill:#DB9673;" d="M325.82,108.095c0.107-0.205,0.236-0.407,0.338-0.609c0.178-0.353,0.356-0.705,0.533-1.058
						c0.065-0.13,0.132-0.264,0.139-0.409c0.023-0.439-0.469-0.716-0.654-1.115c-0.219-0.472,0.023-1.018,0.262-1.481
						c0.188-0.364,0.376-0.728,0.564-1.092c0.162-0.314,0.335-0.641,0.627-0.842c0.291-0.2,0.738-0.223,0.965,0.048
						c0.138,0.164,0.165,0.391,0.187,0.604c0.048,0.467,0.096,0.933,0.144,1.4c-0.318-0.122-0.661-0.181-1.002-0.174
						c-0.137,0.634-0.088,1.307,0.141,1.914c0.05,0.134,0.11,0.269,0.111,0.412c0.001,0.446-0.535,0.694-0.701,1.108
						c-0.099,0.247-0.055,0.526-0.064,0.792c-0.013,0.397-0.155,0.995-0.441,1.293c-0.057,0.06-0.093,0.077-0.169,0.105
						c-0.259,0.099-0.625,0.17-0.872,0.003c-0.221-0.15-0.32-0.413-0.222-0.659C325.74,108.256,325.779,108.175,325.82,108.095z"/>
					<path style="fill:#DB9673;" d="M289.084,108.095c-0.107-0.205-0.236-0.407-0.338-0.609c-0.178-0.353-0.356-0.705-0.533-1.058
						c-0.065-0.13-0.132-0.264-0.14-0.409c-0.023-0.439,0.469-0.716,0.654-1.115c0.219-0.472-0.023-1.018-0.262-1.481
						c-0.188-0.364-0.376-0.728-0.564-1.092c-0.162-0.314-0.335-0.641-0.627-0.842c-0.291-0.2-0.738-0.223-0.965,0.048
						c-0.138,0.164-0.165,0.391-0.187,0.604c-0.048,0.467-0.096,0.933-0.144,1.4c0.318-0.122,0.661-0.181,1.002-0.174
						c0.137,0.634,0.088,1.307-0.141,1.914c-0.05,0.134-0.11,0.269-0.111,0.412c-0.001,0.446,0.535,0.694,0.701,1.108
						c0.099,0.247,0.055,0.526,0.064,0.792c0.013,0.397,0.155,0.995,0.441,1.293c0.057,0.06,0.093,0.077,0.169,0.105
						c0.259,0.099,0.625,0.17,0.872,0.003c0.221-0.15,0.32-0.413,0.222-0.659C289.165,108.256,289.126,108.175,289.084,108.095z"/>
					<circle style="fill:#FFFFFF;" cx="298.141" cy="100.199" r="0.341"/>
					<circle style="fill:#FFFFFF;" cx="315.132" cy="100.199" r="0.341"/>
					<path style="fill:#FFD6C3;" d="M300.321,102.405c-0.561,0.256-1.179,0.385-1.795,0.382c-0.271-0.001-0.581-0.001-0.833-0.107
						c-0.122-0.051-0.236-0.121-0.337-0.206c-0.033-0.028-0.234-0.281-0.249-0.28c0.354-0.033,0.692,0.006,1.043,0.019
						c0.105,0.004,0.196-0.023,0.298-0.04c0.1-0.016,0.2-0.011,0.302-0.009c0.44,0.01,0.88,0.021,1.32,0.031
						C300.202,102.199,300.39,102.292,300.321,102.405z"/>
					<path style="fill:#FFD6C3;" d="M317.233,102.565c-0.435,0.197-0.874,0.37-1.294,0.596c-0.381,0.206-0.942,0.083-1.344,0.006
						c-0.271-0.052-0.586-0.176-0.631-0.448c0.285-0.002,0.569-0.003,0.854-0.006c0.217-0.002,0.418,0.001,0.639,0.012
						c0.34,0.016,0.682,0.005,1.021-0.031C316.708,102.668,317.02,102.661,317.233,102.565z"/>
					<path style="fill:#C7D5E6;" d="M297.904,141.62c5.506,1.382,11.326,1.494,16.881,0.325c-3.121,1.771-6.918,1.855-10.485,1.462
						c-2.051-0.226-4.086-0.595-6.086-1.102L297.904,141.62z"/>
					<path style="fill:#5972BE;" d="M285.958,128.186c-0.619,0.266-19.373,8.273-25.103,12.612c-0.258,0.189-0.481,0.378-0.679,0.55
						c-0.103,0.094-0.206,0.189-0.292,0.275c-3.651,3.6-24.338,44.493-29.356,54.45c-0.369-0.189-0.73-0.378-1.091-0.576
						c0,0,24.725-52.646,31.314-56.383c0.034-0.017,0.06-0.034,0.095-0.052c1.366-0.756,6.039-2.869,10.361-4.802
						c4.321-1.933,8.299-3.677,8.299-3.677C282.556,129.114,282.565,129.114,285.958,128.186z"/>
					<path style="fill:#5972BE;" d="M375.7,199.844c0,0-0.361,0.155-0.996,0.429c-8.101-11.1-17.887-49.399-18.204-50.636
						c0-0.009,0-0.009,0-0.009c-0.009-0.017-0.009-0.026-0.009-0.026s-8.325-10.103-14.742-14.33
						c5.636,3.445,12.577,8.265,15.43,12.543c-0.318,0.833,10.79,36.778,14.656,43.866C375.7,198.77,375.7,199.844,375.7,199.844z"
						/>
					<path style="fill:#405598;" d="M268.054,354.707c-2.509-2.766-4.605-5.911-6.203-9.287c0.043-0.052,0.086-0.077,0.137-0.112
						c1.606-1.022,1.744-2.174,2.002-6.77C265.09,343.985,266.456,349.38,268.054,354.707z"/>
					<path style="fill:#405598;" d="M262.797,367.654c0.292-2.534,0.524-4.502,0.473-4.948c-0.129-1.005-0.747-1.521-1.083-2.998
						c2.191,2.749,4.742,5.232,7.01,7.938c2.801,3.342,5.266,7.182,5.808,11.503C270.941,375.317,266.86,371.485,262.797,367.654z"
						/>
					<path style="fill:#405598;" d="M278.802,444.14c-0.395,0.438-0.859,0.842-1.426,0.988c-1.778,0.464-3.076-1.606-3.737-3.316
						c-1.186-3.076-2.363-6.143-3.548-9.218c0.086-1.332,0.138-2.68,0.103-4.012c-0.103-4.132-0.283-13.488-0.619-19.82
						c3.402,6.598,6.478,13.368,9.218,20.266C280.76,433.968,282.358,440.188,278.802,444.14z"/>
					<path style="fill:#405598;" d="M287.242,388.521c1.034,0.207,2.039,0.616,3.053,1.208c-1.441,3.412-3.437,6.588-5.886,9.367
						c-0.49,0.556-1.026,1.116-1.722,1.372c-1.479,0.544-3.049-0.44-4.281-1.421c-2.469-1.966-4.781-4.128-6.91-6.458
						c-0.866-0.948-2.04-1.972-2.719-3.057c-0.25-0.4-0.406-0.805-0.289-1.294c0.5-2.094,6.489-0.097,8.064,0.088
						c2.414,0.284,5.147,0.606,7.562,0.177C285.207,388.308,286.238,388.32,287.242,388.521z"/>
					<path style="fill:#DB9673;" d="M281.19,239.999c0.79-0.369,1.564-0.739,2.345-1.108c-0.241,0.189-0.498,0.378-0.782,0.584
						c-0.266,0.197-0.601,0.395-0.979,0.584C281.577,240.051,281.379,240.025,281.19,239.999z"/>
					<path style="fill:#DB9673;" d="M286.035,236.563c-0.043,0-0.06,0.009-0.06,0.009s-0.421,0.558-1.357,1.4
						c0-0.043,0-0.077-0.017-0.12c-0.103-0.283-0.472-0.352-0.782-0.378c-1.615-0.12-3.23-0.241-4.845-0.361
						C281.302,236.709,283.673,236.52,286.035,236.563z"/>
					<path style="fill:#DB9673;" d="M368.235,313.47c-0.043,0.309-0.095,0.618-0.241,0.885c-0.206,0.404-0.576,0.687-0.911,0.988
						c-0.524,0.464-0.988,0.988-1.383,1.555c-0.464-0.095-0.773-0.206-0.773-0.206c-0.309,0.086-0.576,0.155-0.807,0.232
						c0.662-0.584,1.323-1.177,1.993-1.761c0.266-0.241,0.541-0.481,0.747-0.782c0.447-0.661,0.498-1.495,0.533-2.294
						c0.077-1.435,0.146-2.869,0.215-4.304C368.278,309.587,368.493,311.563,368.235,313.47z"/>
					<path style="fill:#DB9673;" d="M371.413,313.977c-0.06,0.395-0.223,0.765-0.395,1.125c-0.155,0.335-0.309,0.679-0.473,1.014
						c-0.326,0.103-0.739,0.172-1.246,0.198c-0.043,0.051-0.095,0.094-0.146,0.137c1.34-1.615,2.002-3.771,1.796-5.85
						c-0.034-0.344-0.069-0.747,0.198-0.962c0.086,1.1,0.172,2.199,0.266,3.299C371.439,313.281,371.465,313.633,371.413,313.977z"
						/>
					<path style="fill:#FFFFFF;" d="M301.834,74.545c-3.122,1.311-6.17,2.795-9.127,4.444c0.339-0.991,1.051-1.85,1.962-2.367
						c-0.467-0.076-0.948-0.055-1.407,0.056c-0.234,0.057-0.444,0.152-0.668,0.234c-0.461,0.167-0.946,0.158-1.441,0.201
						c-0.073-0.964,0.463-1.947,1.312-2.408c-0.609,0.084-1.218,0.168-1.827,0.252c0.354-1.643,2.229-2.387,3.842-2.862
						c1.672-0.493,3.344-0.985,5.016-1.478c2.104-0.62,4.289-1.246,6.458-0.923c-2.434,0.563-4.772,1.536-6.888,2.864
						c1.756-0.488,3.614-0.608,5.418-0.351c-0.599,0.122-1.274,0.246-1.826,0.518c-0.427,0.21-0.756,0.421-1.225,0.565
						c-0.58,0.178-1.149,0.392-1.702,0.641c-0.517,0.232-1.021,0.62-1.548,0.809c1.179-0.422,2.48-0.497,3.7-0.215
						C301.866,74.532,301.85,74.539,301.834,74.545z"/>
				</g>
				<path style="fill:#DB9673;" d="M374.386,312.705v0.009c-0.232,0.627-0.43,1.074-0.593,1.211
					c-0.421,0.369-0.893,0.636-1.254,0.799c0.455-1.16,0.67-2.431,0.876-3.668c0.163-0.945,0.318-1.89,0.473-2.844
					C374.231,309.681,374.395,311.193,374.386,312.705z"/>
			</g>
			<path style="fill:#B5C7E6;" d="M170.486,142.365c-0.171,0.638-0.305,1.133-0.324,1.238c-0.076,0.324-6.083,1.932-25.407,8.406
				h-0.009c-0.19,0.619-1.219,2.38-2.77,4.845c-4.807,7.587-14.612,21.789-19.971,29.319c-0.352-0.371-0.704-0.742-1.066-1.123
				c2.846-3.151,15.364-21.275,22.275-32.775c0.447-1.247,0.923-2.085,1.409-2.399C148.021,147.648,158.359,146.192,170.486,142.365
				z"/>
			<path style="fill:#AF8466;" d="M132.752,209.695c0.038,5.911-3.598,10.271-5.712,20.952c-1.418,7.168-2.551,18.981-3.294,27.549
				c0.447-6.473,0.904-13.86,1.057-19.99c0.324-12.718,5.312-25.607,5.797-28.51c0.343-2.037,0.6-9.472,0.723-13.708
				c0.514,0.6,1.019,1.038,1.428,1.095C134.209,197.291,132.724,203.783,132.752,209.695z"/>
		</g>
	</g>
</g>
</svg>
